<svg width="11" height="11" viewBox="0 0 11 11" fill="none" xmlns="http://www.w3.org/2000/svg">
<path d="M11 5.5005C11 5.83079 10.7249 6.10587 10.3946 6.10587H6.77348C6.40705 6.10587 6.10386 6.40805 6.10386 6.77549V10.3966C6.10386 10.7269 5.82879 11.002 5.49849 11.002C5.1682 11.002 4.89313 10.7269 4.89313 10.3966V6.77549C4.89313 6.40905 4.59095 6.10587 4.22351 6.10587H0.605366C0.275075 6.10587 0 5.83079 0 5.5005C0 5.17021 0.275075 4.89514 0.605366 4.89514H4.22652C4.59295 4.89514 4.89614 4.59295 4.89614 4.21648V0.605366C4.89614 0.26604 5.17121 0 5.50151 0C5.8318 0 6.10687 0.26604 6.10687 0.605366V4.21749C6.10687 4.59295 6.40905 4.89614 6.77649 4.89614H10.3976C10.7279 4.89614 11.003 5.16218 11.003 5.50151L11 5.5005Z" fill="white"/>
</svg>
