<svg width="71" height="17" viewBox="0 0 71 17" fill="none" xmlns="http://www.w3.org/2000/svg">
<path d="M4.46006 7.93108C4.23353 7.6819 3.89375 7.70455 3.73517 7.99904L0.042797 15.3611C-0.0931191 15.6556 0.110755 15.9954 0.427892 15.9954H5.54739C5.70596 15.9954 5.86452 15.9048 5.93249 15.7463C7.06512 13.4583 6.38554 9.99248 4.46006 7.93108Z" fill="#1868DB"/>
<path d="M7.15594 1.22634C5.09454 4.48832 5.23046 8.09009 6.58962 10.8084C7.94878 13.5267 8.9908 15.5881 9.05877 15.7467C9.12674 15.9053 9.28529 15.9958 9.44384 15.9958H14.5634C14.8804 15.9958 15.107 15.656 14.9484 15.3616C14.9484 15.3616 8.06204 1.58878 7.88081 1.24899C7.7449 0.931857 7.3598 0.909204 7.15594 1.22634Z" fill="#1868DB"/>
<path d="M20.228 13L23.312 4.6H25.328L28.412 13H26.744L26.144 11.284H22.484L21.884 13H20.228ZM22.904 10.108H25.736L24.368 6.22H24.272L22.904 10.108ZM31.1262 13.084C29.9502 13.084 29.1822 12.568 29.1822 11.248V7.96H28.1382V6.76H29.1822V5.164H30.7182V6.76H31.9422V7.96H30.7182V11.008C30.7182 11.548 30.8862 11.848 31.5342 11.848C31.6782 11.848 31.7862 11.848 32.0142 11.824V12.976C31.7502 13.048 31.4502 13.084 31.1262 13.084ZM32.941 13V4.6H34.477V13H32.941ZM37.4692 13.12C36.4132 13.12 35.4652 12.616 35.4652 11.368C35.4652 10.072 36.4852 9.7 37.6252 9.544L38.7892 9.388C39.4012 9.304 39.5812 9.196 39.5812 8.872V8.74C39.5812 7.984 39.1252 7.756 38.4532 7.756C37.7692 7.756 37.2412 7.984 37.2412 8.668V8.8H35.8012V8.524C35.8012 7.312 36.6292 6.64 38.4892 6.64C40.3252 6.64 41.0932 7.3 41.0932 8.68V13H39.6172V11.884H39.5572C39.4252 12.232 38.8612 13.12 37.4692 13.12ZM37.9732 12.004C38.9572 12.004 39.5812 11.344 39.5812 10.84V10.048C39.4972 10.192 39.1972 10.264 38.8492 10.312L37.8652 10.468C37.2052 10.564 37.0012 10.864 37.0012 11.236C37.0012 11.716 37.3252 12.004 37.9732 12.004ZM44.6786 13.12C43.0706 13.12 42.0266 12.436 42.0146 11.032H43.3826C43.4666 11.692 43.9706 11.956 44.6906 11.956C45.3506 11.956 45.8186 11.728 45.8186 11.2C45.8186 10.816 45.5666 10.624 45.0866 10.528L43.9346 10.276C42.6746 9.988 42.1826 9.328 42.1826 8.488C42.1826 7.312 43.1906 6.64 44.6906 6.64C46.2746 6.64 47.1746 7.396 47.1986 8.716H45.9266C45.8306 8.032 45.3746 7.804 44.7026 7.804C44.0186 7.804 43.6706 8.032 43.6706 8.464C43.6706 8.824 43.9226 9.052 44.4266 9.148L45.6146 9.412C46.5986 9.64 47.4026 10.072 47.4026 11.164C47.4026 12.544 46.1306 13.12 44.6786 13.12ZM50.6317 13.12C49.0237 13.12 47.9797 12.436 47.9677 11.032H49.3357C49.4197 11.692 49.9237 11.956 50.6437 11.956C51.3037 11.956 51.7717 11.728 51.7717 11.2C51.7717 10.816 51.5197 10.624 51.0397 10.528L49.8877 10.276C48.6277 9.988 48.1357 9.328 48.1357 8.488C48.1357 7.312 49.1437 6.64 50.6437 6.64C52.2277 6.64 53.1277 7.396 53.1517 8.716H51.8797C51.7837 8.032 51.3277 7.804 50.6557 7.804C49.9717 7.804 49.6237 8.032 49.6237 8.464C49.6237 8.824 49.8757 9.052 50.3797 9.148L51.5677 9.412C52.5517 9.64 53.3557 10.072 53.3557 11.164C53.3557 12.544 52.0837 13.12 50.6317 13.12ZM54.2808 13V6.76H55.8168V13H54.2808ZM55.0488 5.884C54.5808 5.884 54.1728 5.512 54.1728 5.02C54.1728 4.528 54.5808 4.156 55.0488 4.156C55.5048 4.156 55.9128 4.528 55.9128 5.02C55.9128 5.512 55.5048 5.884 55.0488 5.884ZM58.809 13.12C57.753 13.12 56.805 12.616 56.805 11.368C56.805 10.072 57.825 9.7 58.965 9.544L60.129 9.388C60.741 9.304 60.921 9.196 60.921 8.872V8.74C60.921 7.984 60.465 7.756 59.793 7.756C59.109 7.756 58.581 7.984 58.581 8.668V8.8H57.141V8.524C57.141 7.312 57.969 6.64 59.829 6.64C61.665 6.64 62.433 7.3 62.433 8.68V13H60.957V11.884H60.897C60.765 12.232 60.201 13.12 58.809 13.12ZM59.313 12.004C60.297 12.004 60.921 11.344 60.921 10.84V10.048C60.837 10.192 60.537 10.264 60.189 10.312L59.205 10.468C58.545 10.564 58.341 10.864 58.341 11.236C58.341 11.716 58.665 12.004 59.313 12.004ZM68.033 9.436C68.033 8.416 67.589 7.912 66.761 7.912C65.921 7.912 65.309 8.416 65.309 9.436V13H63.773V6.76H65.309V8.044H65.357C65.477 7.504 66.077 6.64 67.397 6.64C68.621 6.64 69.569 7.384 69.569 9.076V13H68.033V9.436Z" fill="black"/>
</svg>
