<svg width="19" height="19" viewBox="0 0 19 19" fill="none" xmlns="http://www.w3.org/2000/svg">
<path d="M5.64915 8.78059C5.36223 8.46497 4.93185 8.49366 4.731 8.86668L0.054207 18.1919C-0.117945 18.565 0.140283 18.9953 0.541971 18.9953H7.02637C7.22721 18.9953 7.42805 18.8806 7.51413 18.6798C8.94874 15.7817 8.08798 11.3917 5.64915 8.78059Z" fill="#1868DB"/>
<path d="M9.06403 0.287805C6.45305 4.41963 6.6252 8.98186 8.34672 12.4251C10.0683 15.8682 11.3881 18.4793 11.4742 18.6802C11.5603 18.881 11.7611 18.9958 11.9619 18.9958H18.4463C18.848 18.9958 19.135 18.5654 18.9341 18.1924C18.9341 18.1924 10.2117 0.746896 9.98216 0.316498C9.81002 -0.0852074 9.32225 -0.113901 9.06403 0.287805Z" fill="#1868DB"/>
</svg>
