<svg width="10" height="10" viewBox="0 0 10 10" fill="none" xmlns="http://www.w3.org/2000/svg">
<g clip-path="url(#clip0_364_6961)">
<path d="M8.53547 2.34835L2.34829 8.53554C2.10433 8.77949 1.70836 8.77949 1.4644 8.53554C1.22045 8.29159 1.22045 7.89561 1.4644 7.65166L7.65159 1.46447C7.89554 1.22052 8.29152 1.22052 8.53547 1.46447C8.77942 1.70842 8.77942 2.1044 8.53547 2.34835Z" fill="#A5A4A8"/>
<path d="M8.53547 8.53553C8.29152 8.77948 7.89554 8.77948 7.65159 8.53553L1.4644 2.34834C1.22045 2.10439 1.22045 1.70841 1.4644 1.46446C1.70836 1.22051 2.10433 1.22051 2.34829 1.46446L8.53547 7.65165C8.77942 7.8956 8.77942 8.29158 8.53547 8.53553Z" fill="#A5A4A8"/>
</g>
<defs>
<clipPath id="clip0_364_6961">
<rect width="10" height="10" fill="white"/>
</clipPath>
</defs>
</svg>