<svg width="14" height="14" viewBox="0 0 14 14" fill="none" xmlns="http://www.w3.org/2000/svg">
<path d="M7 0C3.14005 0 0 3.14005 0 7C0 10.86 3.14005 14 7 14C10.86 14 14 10.86 14 7C14 3.14005 10.86 0 7 0Z" fill="#F44336"/>
<path d="M9.57661 8.75171C9.80465 8.97985 9.80465 9.34846 9.57661 9.57661C9.46286 9.69036 9.31353 9.74751 9.1641 9.74751C9.01478 9.74751 8.86546 9.69036 8.75171 9.57661L6.99882 7.82362L5.24594 9.57661C5.13218 9.69036 4.98286 9.74751 4.83354 9.74751C4.68411 9.74751 4.53479 9.69036 4.42103 9.57661C4.19299 9.34846 4.19299 8.97985 4.42103 8.75171L6.17402 6.99882L4.42103 5.24594C4.19299 5.01779 4.19299 4.64918 4.42103 4.42103C4.64918 4.19299 5.01779 4.19299 5.24594 4.42103L6.99882 6.17402L8.75171 4.42103C8.97985 4.19299 9.34846 4.19299 9.57661 4.42103C9.80465 4.64918 9.80465 5.01779 9.57661 5.24594L7.82362 6.99882L9.57661 8.75171Z" fill="#FAFAFA"/>
</svg>
