<svg width="23" height="23" viewBox="0 0 23 23" fill="none" xmlns="http://www.w3.org/2000/svg">
<rect width="23" height="23" rx="5.7572" fill="#00BC71"/>
<path fill-rule="evenodd" clip-rule="evenodd" d="M10.9876 13.1634C10.9876 12.858 10.8663 12.5653 10.6503 12.3497C10.4347 12.1337 10.142 12.0124 9.8366 12.0124C9.07465 12.0124 7.91293 12.0124 7.15098 12.0124C6.84559 12.0124 6.55285 12.1337 6.33724 12.3497C6.12124 12.5653 6 12.858 6 13.1634V15.849C6 16.1544 6.12124 16.4471 6.33724 16.6628C6.55285 16.8788 6.84559 17 7.15098 17H9.8366C10.142 17 10.4347 16.8788 10.6503 16.6628C10.8663 16.4471 10.9876 16.1544 10.9876 15.849V13.1634ZM16.7425 13.1634C16.7425 12.858 16.6212 12.5653 16.4052 12.3497C16.1896 12.1337 15.8969 12.0124 15.5915 12.0124C14.8295 12.0124 13.6678 12.0124 12.9059 12.0124C12.6005 12.0124 12.3077 12.1337 12.0921 12.3497C11.8761 12.5653 11.7549 12.858 11.7549 13.1634V15.849C11.7549 16.1544 11.8761 16.4471 12.0921 16.6628C12.3077 16.8788 12.6005 17 12.9059 17H15.5915C15.8969 17 16.1896 16.8788 16.4052 16.6628C16.6212 16.4471 16.7425 16.1544 16.7425 15.849V13.1634ZM15.0624 11.1657L16.6631 9.56506C17.1123 9.1158 17.1123 8.38684 16.6631 7.93758L15.0624 6.33695C14.6132 5.88768 13.8842 5.88768 13.4349 6.33695L11.8343 7.93758C11.385 8.38684 11.385 9.1158 11.8343 9.56506L13.4349 11.1657C13.8842 11.615 14.6132 11.615 15.0624 11.1657ZM10.9876 7.40851C10.9876 7.10312 10.8663 6.81038 10.6503 6.59477C10.4347 6.37877 10.142 6.25753 9.8366 6.25753C9.07465 6.25753 7.91293 6.25753 7.15098 6.25753C6.84559 6.25753 6.55285 6.37877 6.33724 6.59477C6.12124 6.81038 6 7.10312 6 7.40851V10.0941C6 10.3995 6.12124 10.6923 6.33724 10.9079C6.55285 11.1239 6.84559 11.2451 7.15098 11.2451H9.8366C10.142 11.2451 10.4347 11.1239 10.6503 10.9079C10.8663 10.6923 10.9876 10.3995 10.9876 10.0941V7.40851Z" fill="white"/>
</svg>
