<svg width="23" height="23" viewBox="0 0 23 23" fill="none" xmlns="http://www.w3.org/2000/svg">
<path d="M19.55 0H3.45C1.55205 0 0 1.55261 0 3.45V19.55C0 21.4474 1.55205 23 3.45 23H19.55C21.4479 23 23 21.4474 23 19.55V3.45C23 1.55261 21.4479 0 19.55 0Z" fill="#FF9C22"/>
<g clip-path="url(#clip0_80_2276)">
<path d="M11.4183 11.2896C12.1794 11.2896 12.8384 11.0167 13.3768 10.4781C13.9153 9.93967 14.1882 9.28084 14.1882 8.51971C14.1882 7.75885 13.9153 7.09994 13.3767 6.56131C12.8382 6.02295 12.1793 5.75 11.4183 5.75C10.6572 5.75 9.99837 6.02295 9.45993 6.5614C8.92148 7.09985 8.64844 7.75876 8.64844 8.51971C8.64844 9.28084 8.92148 9.93975 9.46001 10.4782C9.99855 11.0166 10.6575 11.2896 11.4183 11.2896Z" fill="white"/>
<path d="M16.2646 14.5927C16.2491 14.3686 16.2177 14.1241 16.1714 13.866C16.1248 13.606 16.0647 13.3601 15.9927 13.1354C15.9184 12.9032 15.8173 12.6738 15.6924 12.4541C15.5627 12.2259 15.4104 12.0273 15.2395 11.8638C15.0608 11.6928 14.8419 11.5554 14.5889 11.4551C14.3367 11.3553 14.0573 11.3048 13.7584 11.3048C13.641 11.3048 13.5275 11.3529 13.3082 11.4957C13.1733 11.5837 13.0154 11.6855 12.8392 11.798C12.6886 11.894 12.4845 11.984 12.2324 12.0654C11.9865 12.145 11.7368 12.1853 11.4903 12.1853C11.2439 12.1853 10.9943 12.145 10.7481 12.0654C10.4963 11.984 10.2922 11.8941 10.1417 11.7981C9.96722 11.6866 9.80929 11.5848 9.67233 11.4956C9.45333 11.3529 9.33971 11.3047 9.22232 11.3047C8.92331 11.3047 8.64395 11.3553 8.39188 11.4552C8.13902 11.5553 7.92011 11.6928 7.74121 11.8639C7.57039 12.0275 7.41799 12.226 7.28849 12.4541C7.16364 12.6738 7.06256 12.9031 6.98816 13.1355C6.9163 13.3602 6.8562 13.606 6.80952 13.866C6.76329 14.1238 6.73188 14.3683 6.71635 14.5929C6.70108 14.813 6.69336 15.0414 6.69336 15.272C6.69336 15.8723 6.88419 16.3583 7.2605 16.7167C7.63216 17.0704 8.12393 17.2498 8.72195 17.2498H14.2593C14.8573 17.2498 15.3489 17.0705 15.7206 16.7167C16.097 16.3586 16.2879 15.8725 16.2879 15.2719C16.2878 15.0402 16.28 14.8117 16.2646 14.5927Z" fill="white"/>
</g>
<defs>
<clipPath id="clip0_80_2276">
<rect width="11.5" height="11.5" fill="white" transform="translate(5.75 5.75)"/>
</clipPath>
</defs>
</svg>
