<svg width="23" height="23" viewBox="0 0 23 23" fill="none" xmlns="http://www.w3.org/2000/svg">
<rect x="2.6958" y="2.69629" width="17.6087" height="17.6087" fill="white"/>
<path fill-rule="evenodd" clip-rule="evenodd" d="M3.625 0.25H19.375C21.2317 0.25 22.75 1.76886 22.75 3.625V19.375C22.75 21.2311 21.2317 22.75 19.375 22.75H3.625C1.76831 22.75 0.25 21.2311 0.25 19.375V3.625C0.25 1.76886 1.76831 0.25 3.625 0.25ZM8.05834 4.75H14.9788C15.5425 4.75 15.9998 5.27479 15.9998 5.89598V17.4832C15.9998 18.0129 15.7351 18.25 15.4635 18.25C15.3029 18.25 15.1435 18.1689 14.9847 18.0155L11.8989 15.0408C11.803 14.9481 11.6659 14.8952 11.5231 14.8952C11.3803 14.8952 11.2429 14.9481 11.1473 15.0406L8.05109 18.016C7.89291 18.1689 7.72163 18.2499 7.56076 18.2499C7.3906 18.25 7.23192 18.1583 7.13337 17.9982C7.05096 17.8643 6.99983 17.691 6.99983 17.4831V5.89598C6.99983 5.27479 7.49472 4.75 8.05834 4.75Z" fill="#FF9C22"/>
</svg>
