<svg width="12" height="9" viewBox="0 0 12 9" fill="none" xmlns="http://www.w3.org/2000/svg">
<path d="M12 4.5C12 4.18346 11.7406 3.92796 11.4194 3.92796L8.94193 3.92796C8.66323 2.27287 7.20774 1.00679 5.45031 1.00679L3.82064 1.00679L3.82064 0.572035C3.82064 0.259319 3.5613 7.98005e-07 3.24 8.12049e-07C2.9187 8.26094e-07 2.65935 0.259319 2.65935 0.572035L2.65935 1.91439L0.580645 1.91439C0.259347 1.91439 -2.98552e-07 2.16992 -2.84717e-07 2.48643C-2.70881e-07 2.80296 0.259347 3.05846 0.580645 3.05846L2.65935 3.05846L2.65935 5.94154L0.580645 5.94154C0.259347 5.94154 -1.22521e-07 6.19704 -1.08685e-07 6.51358C-9.485e-08 6.83009 0.259347 7.08561 0.580645 7.08561L2.65935 7.08561L2.65935 8.42797C2.65935 8.74068 2.9187 9 3.24 9C3.5613 9 3.82065 8.74068 3.82065 8.42797L3.82065 7.99322L5.45031 7.99321C7.20774 7.99321 8.66323 6.72713 8.94193 5.07204L11.4194 5.07204C11.7406 5.07203 12 4.81653 12 4.5Z" fill="white"/>
</svg>
