<svg width="23" height="23" viewBox="0 0 23 23" fill="none" xmlns="http://www.w3.org/2000/svg">
<path fill-rule="evenodd" clip-rule="evenodd" d="M3.45 0H19.55C21.4479 0 23 1.55261 23 3.45V19.55C23 21.4474 21.4479 23 19.55 23H3.45C1.55205 23 0 21.4474 0 19.55V3.45C0 1.55261 1.55205 0 3.45 0ZM13.5542 6.01442C13.9011 5.93437 14.2322 6.1978 14.2322 6.55378V16.9998H13.9566H13.9555H13.9544H11.4646V15.3392C11.4646 15.0335 11.2167 14.7857 10.911 14.7857H9.80395C9.49824 14.7857 9.25041 15.0335 9.25041 15.3392V16.9998H6.76059H6.7595H6.75841H6.20597C6.05311 16.9998 5.9292 16.8759 5.9292 16.723C5.9292 16.5702 6.05311 16.4463 6.20597 16.4463H6.48273V8.08664C6.48273 7.82888 6.66065 7.60524 6.9118 7.54728L13.5542 6.01442ZM8.14334 9.52707C8.14334 9.37422 8.26725 9.25031 8.42011 9.25031H8.97364C9.1265 9.25031 9.25041 9.37422 9.25041 9.52707V10.0806C9.25041 10.2335 9.1265 10.3574 8.97364 10.3574H8.42011C8.26725 10.3574 8.14334 10.2335 8.14334 10.0806V9.52707ZM8.42011 10.9109C8.26725 10.9109 8.14334 11.0348 8.14334 11.1877V11.7412C8.14334 11.894 8.26725 12.018 8.42011 12.018H8.97364C9.1265 12.018 9.25041 11.894 9.25041 11.7412V11.1877C9.25041 11.0348 9.1265 10.9109 8.97364 10.9109H8.42011ZM8.14334 12.8483C8.14334 12.6955 8.26725 12.5715 8.42011 12.5715H8.97364C9.1265 12.5715 9.25041 12.6955 9.25041 12.8483V13.4018C9.25041 13.5547 9.1265 13.6786 8.97364 13.6786H8.42011C8.26725 13.6786 8.14334 13.5547 8.14334 13.4018V12.8483ZM10.0807 9.25031C9.92786 9.25031 9.80395 9.37422 9.80395 9.52707V10.0806C9.80395 10.2335 9.92786 10.3574 10.0807 10.3574H10.6342C10.7871 10.3574 10.911 10.2335 10.911 10.0806V9.52707C10.911 9.37422 10.7871 9.25031 10.6342 9.25031H10.0807ZM9.80395 11.1877C9.80395 11.0348 9.92786 10.9109 10.0807 10.9109H10.6342C10.7871 10.9109 10.911 11.0348 10.911 11.1877V11.7412C10.911 11.894 10.7871 12.018 10.6342 12.018H10.0807C9.92786 12.018 9.80395 11.894 9.80395 11.7412V11.1877ZM10.0807 12.5715C9.92786 12.5715 9.80395 12.6955 9.80395 12.8483V13.4018C9.80395 13.5547 9.92786 13.6786 10.0807 13.6786H10.6342C10.7871 13.6786 10.911 13.5547 10.911 13.4018V12.8483C10.911 12.6955 10.7871 12.5715 10.6342 12.5715H10.0807ZM11.4646 9.52707C11.4646 9.37422 11.5885 9.25031 11.7413 9.25031H12.2949C12.4477 9.25031 12.5716 9.37422 12.5716 9.52707V10.0806C12.5716 10.2335 12.4477 10.3574 12.2949 10.3574H11.7413C11.5885 10.3574 11.4646 10.2335 11.4646 10.0806V9.52707ZM11.7413 10.9109C11.5885 10.9109 11.4646 11.0348 11.4646 11.1877V11.7412C11.4646 11.894 11.5885 12.018 11.7413 12.018H12.2949C12.4477 12.018 12.5716 11.894 12.5716 11.7412V11.1877C12.5716 11.0348 12.4477 10.9109 12.2949 10.9109H11.7413ZM11.4646 12.8483C11.4646 12.6955 11.5885 12.5715 11.7413 12.5715H12.2949C12.4477 12.5715 12.5716 12.6955 12.5716 12.8483V13.4018C12.5716 13.5547 12.4477 13.6786 12.2949 13.6786H11.7413C11.5885 13.6786 11.4646 13.5547 11.4646 13.4018V12.8483ZM14.7859 7.9726V17.0002H16.169H16.1698H16.1706H16.7233C16.8762 17.0002 17.0001 16.8763 17.0001 16.7234C17.0001 16.5706 16.8762 16.4467 16.7233 16.4467H16.4466V9.14501C16.4466 8.93534 16.3281 8.74367 16.1406 8.64991L14.7859 7.9726ZM9.80377 16.9997H10.9108V15.3391H9.80377V16.9997Z" fill="#FF9C22"/>
</svg>
