<svg width="40" height="40" viewBox="0 0 40 40" fill="none" xmlns="http://www.w3.org/2000/svg">
<g filter="url(#filter0_b_791_174)">
<rect width="40" height="39.1489" rx="8" fill="url(#paint0_linear_791_174)"/>
</g>
<path d="M27.7656 18.036L25.2435 15.5133C25.0033 15.2734 25.0782 15.0169 25.4093 14.9423C25.4093 14.9423 25.6828 14.8806 26.0196 14.5438C26.7428 13.8209 26.7421 12.6473 26.0196 11.9255C25.2961 11.2023 24.1242 11.2023 23.4006 11.9255C23.0638 12.2623 23.0024 12.5355 23.0024 12.5355C22.9279 12.8673 22.6706 12.9415 22.431 12.7009L19.9089 10.1802C19.669 9.93995 19.2759 9.93995 19.0359 10.1802L16.5142 12.7015C16.2746 12.9422 16.3488 13.1994 16.6799 13.2736C16.6799 13.2736 16.9538 13.3353 17.2903 13.6715C18.0125 14.3943 18.0135 15.5672 17.2903 16.2907C16.5674 17.0136 15.3938 17.0129 14.6716 16.2907C14.3351 15.9535 14.2734 15.68 14.2734 15.68C14.1992 15.3486 13.9416 15.2744 13.7017 15.5143L11.18 18.0364C10.94 18.2763 10.94 18.669 11.18 18.9087L13.7017 21.4307C13.9416 21.6706 13.8671 21.9278 13.536 22.0024C13.536 22.0024 13.2625 22.0644 12.9256 22.4009C12.2024 23.1244 12.2024 24.2966 12.9256 25.0195C13.6485 25.7424 14.8211 25.743 15.5443 25.0195C15.8815 24.6826 15.9425 24.4095 15.9425 24.4095C16.017 24.0777 16.2743 24.0035 16.5139 24.2445L19.0359 26.7651C19.2759 27.0054 19.669 27.0054 19.9089 26.7651L22.4314 24.2438C22.6713 24.0039 22.5964 23.7459 22.2657 23.6721C22.2657 23.6721 21.9915 23.6104 21.655 23.2742C20.9314 22.5507 20.9317 21.3785 21.655 20.6549C22.3778 19.9321 23.5504 19.9311 24.2736 20.6549C24.6105 20.9918 24.6715 21.2656 24.6715 21.2656C24.7464 21.5974 25.0033 21.6719 25.2435 21.432L27.7656 18.9093C28.0052 18.6687 28.0052 18.276 27.7656 18.036Z" stroke="#FB5B7D" stroke-miterlimit="10"/>
<defs>
<filter id="filter0_b_791_174" x="-4" y="-4" width="48" height="47.1484" filterUnits="userSpaceOnUse" color-interpolation-filters="sRGB">
<feFlood flood-opacity="0" result="BackgroundImageFix"/>
<feGaussianBlur in="BackgroundImageFix" stdDeviation="2"/>
<feComposite in2="SourceAlpha" operator="in" result="effect1_backgroundBlur_791_174"/>
<feBlend mode="normal" in="SourceGraphic" in2="effect1_backgroundBlur_791_174" result="shape"/>
</filter>
<linearGradient id="paint0_linear_791_174" x1="0" y1="0" x2="34.9804" y2="39.8968" gradientUnits="userSpaceOnUse">
<stop stop-color="#FEBCAA"/>
<stop offset="0.53" stop-color="#FECBAE"/>
<stop offset="1" stop-color="#FBACC5"/>
</linearGradient>
</defs>
</svg>
