<svg width="17" height="17" viewBox="0 0 17 17" fill="none" xmlns="http://www.w3.org/2000/svg">
<path d="M10.4984 2.83826L1.14478 12.1926C1.09772 12.2398 1.06374 12.2994 1.04756 12.3634L0.010799 16.5248C-0.0202136 16.65 0.016597 16.7832 0.108016 16.8747C0.177188 16.9438 0.271439 16.9821 0.367848 16.9821C0.397377 16.9821 0.42758 16.9785 0.456975 16.9711L4.61832 15.9342C4.68317 15.918 4.7421 15.8841 4.78916 15.8371L14.1436 6.48344L10.4984 2.83826Z" fill="black"/>
<path d="M16.461 1.56288L15.4198 0.521668C14.7239 -0.174226 13.511 -0.173552 12.816 0.521668L11.5405 1.79709L15.1856 5.44214L16.461 4.16672C16.8086 3.81924 17.0001 3.35675 17.0001 2.86487C17.0001 2.37298 16.8086 1.91049 16.461 1.56288Z" fill="black"/>
</svg>
