<svg width="13" height="10" viewBox="0 0 13 10" fill="none" xmlns="http://www.w3.org/2000/svg">
<path fill-rule="evenodd" clip-rule="evenodd" d="M11.6615 7.14791C11.6615 8.28351 10.7377 9.2058 9.60359 9.2058H2.85197C1.71781 9.2058 0.794046 8.28348 0.794046 7.14791V2.85194C0.794046 2.47294 0.897819 2.11697 1.07795 1.81145L4.37232 5.10583C4.86519 5.60014 5.5252 5.8725 6.22847 5.8725C6.9303 5.8725 7.59032 5.60014 8.08318 5.10583L11.3776 1.81145C11.5577 2.11697 11.6615 2.47291 11.6615 2.85194V7.14791H11.6615ZM9.60356 0.794046H2.85197C2.38361 0.794046 1.95126 0.952556 1.6054 1.21628L4.93292 4.54525C5.27736 4.88822 5.73706 5.07846 6.22847 5.07846C6.71845 5.07846 7.17817 4.88822 7.52258 4.54525L10.8501 1.21628C10.5043 0.952556 10.0719 0.794046 9.60356 0.794046ZM9.60356 0H2.85197C1.27971 0 0 1.27971 0 2.85197V7.14794C0 8.72163 1.27971 9.9999 2.85197 9.9999H9.60356C11.1758 9.9999 12.4555 8.72163 12.4555 7.14794V2.85194C12.4555 1.27969 11.1758 0 9.60356 0Z" fill="black"/>
</svg>
