<svg width="13" height="17" viewBox="0 0 13 17" fill="none" xmlns="http://www.w3.org/2000/svg">
<path fill-rule="evenodd" clip-rule="evenodd" d="M2.35231 0H8.04172L12.8563 5.02555V14.785C12.8563 16.0073 11.8698 17 10.6476 17H2.35231C1.13625 17 0.143555 16.0073 0.143555 14.785V2.20875C0.143533 0.992694 1.13625 0 2.35231 0Z" fill="#00733B"/>
<path opacity="0.302" fill-rule="evenodd" clip-rule="evenodd" d="M8.03516 0V4.98212H12.856L8.03516 0Z" fill="white"/>
<path d="M5.42931 12.3776H4.60413L4.03955 11.4284L3.47494 12.3776H2.64355L3.62386 10.7273L2.76146 9.29404H3.59282L4.03953 10.0386L4.48003 9.29404H5.31141L4.4552 10.7335L5.42931 12.3776ZM5.72092 12.3776V9.29404H6.50887V11.7075H7.84901V12.3776H5.72092V12.3776ZM9.15194 12.4149C8.84171 12.4149 8.56873 12.3156 8.33297 12.1232C8.1034 11.9371 7.97312 11.7013 7.9545 11.4222L8.63078 11.2236C8.6494 11.3725 8.71144 11.5028 8.81692 11.6021C8.92859 11.7014 9.05268 11.751 9.18918 11.751C9.30085 11.751 9.39392 11.7262 9.46837 11.6765C9.53661 11.6269 9.57384 11.5587 9.57384 11.478C9.57384 11.4098 9.54282 11.3539 9.48697 11.3043C9.43113 11.2608 9.35668 11.2236 9.26982 11.1926C9.18295 11.1616 9.07749 11.1306 8.972 11.1057C8.86033 11.0747 8.74864 11.0375 8.64317 10.9879C8.5315 10.9444 8.43222 10.8886 8.34536 10.8203C8.25229 10.7583 8.18405 10.6652 8.1282 10.5473C8.07236 10.4357 8.04134 10.2992 8.04134 10.1441C8.04134 9.88969 8.14681 9.67874 8.36396 9.51122C8.58112 9.33749 8.84171 9.25684 9.14571 9.25684C9.44973 9.25684 9.7165 9.33128 9.93987 9.47399C10.1632 9.62289 10.3059 9.81524 10.3618 10.051L9.65447 10.3488C9.62345 10.2185 9.5614 10.1131 9.47454 10.0324C9.38767 9.95795 9.276 9.91452 9.14571 9.91452C9.04643 9.91452 8.97198 9.93932 8.90995 9.97657C8.8541 10.0138 8.82929 10.0696 8.82929 10.1379C8.82929 10.1999 8.86652 10.2558 8.94097 10.2992C9.01541 10.3364 9.11469 10.3674 9.22636 10.3861C9.33804 10.4047 9.46212 10.4357 9.59242 10.4791C9.72892 10.5288 9.8468 10.5784 9.96468 10.6466C10.0763 10.7087 10.1694 10.8142 10.2439 10.9507C10.3245 11.0934 10.3617 11.2609 10.3617 11.4532C10.3617 11.7386 10.2501 11.9744 10.0267 12.1481C9.80334 12.3218 9.5118 12.4149 9.15194 12.4149Z" fill="white"/>
</svg>
