<svg width="14" height="11" viewBox="0 0 14 11" fill="none" xmlns="http://www.w3.org/2000/svg">
<path d="M0.831238 6.34551C0.582062 6.34551 0.387498 6.42808 0.194336 6.51068L1.19101 0.692917C1.27361 0.277167 1.63475 0 2.02251 0H11.2755C11.6913 0 12.0244 0.305174 12.107 0.692917L13.1037 6.51068C12.9105 6.40009 12.6893 6.34551 12.4668 6.34551H0.831238Z" fill="black"/>
<path d="M12.467 6.89844H0.8315C0.35977 6.89844 0 7.25961 0 7.72994V10.1685C0 10.6122 0.35977 11 0.8315 11H12.467C12.9388 11 13.2985 10.6122 13.2985 10.1685V7.72994C13.2985 7.2876 12.9388 6.89844 12.467 6.89844ZM2.17477 9.63966C1.81156 9.63966 1.51108 9.34024 1.51108 8.97703C1.51108 8.61277 1.81156 8.31335 2.17477 8.31335C2.53797 8.31335 2.83845 8.61277 2.83845 8.97703C2.83845 9.34024 2.55959 9.63966 2.17477 9.63966ZM4.54906 9.63966C4.18585 9.63966 3.88643 9.34024 3.88643 8.97703C3.88643 8.61277 4.18585 8.31335 4.54906 8.31335C4.91332 8.31335 5.21275 8.61277 5.21275 8.97703C5.21275 9.34024 4.93496 9.63966 4.54906 9.63966Z" fill="black"/>
</svg>
