<svg width="31" height="39" viewBox="0 0 31 39" fill="none" xmlns="http://www.w3.org/2000/svg">
<path d="M28.8547 6.87287L23.669 2.07887C22.729 1.18586 21.4914 0.700195 20.191 0.700195H5.6367C2.81663 0.700195 0.513672 3.00315 0.513672 5.82323V33.1772C0.513672 35.9972 2.81663 38.3002 5.6367 38.3002H25.361C28.181 38.3002 30.484 35.9972 30.484 33.1772V10.6328C30.484 9.20719 29.8887 7.84419 28.8547 6.87287ZM10.3837 13.5782C14.6191 9.3427 14.4721 9.46875 14.6294 9.36381C14.88 9.1915 15.1933 9.09751 15.491 9.09751H15.5067C15.914 9.09751 16.3057 9.26982 16.6034 9.5519C18.2361 11.191 20.7782 13.743 20.614 13.5782C21.225 14.1892 21.225 15.1762 20.614 15.7872C20.003 16.3982 19.016 16.3982 18.405 15.7872L17.0734 14.4555V19.9859C17.0734 20.8632 16.3683 21.5525 15.5067 21.5525C14.6294 21.5525 13.94 20.8632 13.94 19.9859V14.4555L12.5927 15.8029C12.0065 16.3891 11.0068 16.4261 10.3837 15.8029C9.77263 15.1919 9.77263 14.1892 10.3837 13.5782ZM21.5697 29.9029H9.42801C8.56636 29.9029 7.86134 29.1979 7.86134 28.3362C7.86134 27.4745 8.56636 26.7696 9.42801 26.7696H21.5697C22.4313 26.7696 23.1363 27.4745 23.1363 28.3362C23.1363 29.1979 22.4313 29.9029 21.5697 29.9029Z" fill="#B4B4B4"/>
</svg>
