<svg width="18" height="13" viewBox="0 0 18 13" fill="none" xmlns="http://www.w3.org/2000/svg">
<path d="M14.3953 7.29236H3.59531C3.36241 7.29236 3.17317 7.19848 3.0397 7.03473C2.90442 6.86875 2.82031 6.62276 2.82031 6.31317C2.82031 6.00358 2.90442 5.75759 3.0397 5.59161C3.17317 5.42787 3.36241 5.33398 3.59531 5.33398H14.3953C14.6282 5.33398 14.8175 5.42787 14.9509 5.59161C15.0862 5.75759 15.1703 6.00358 15.1703 6.31317C15.1703 6.62276 15.0862 6.86875 14.9509 7.03473C14.8175 7.19848 14.6282 7.29236 14.3953 7.29236Z" fill="black" stroke="white" stroke-width="0.25"/>
<path d="M11.6984 12.4994H6.29844C6.06554 12.4994 5.87629 12.4055 5.74283 12.2418C5.60754 12.0758 5.52344 11.8298 5.52344 11.5202C5.52344 11.2106 5.60754 10.9646 5.74283 10.7986C5.87629 10.6349 6.06554 10.541 6.29844 10.541H11.6984C11.9313 10.541 12.1206 10.6349 12.254 10.7986C12.3893 10.9646 12.4734 11.2106 12.4734 11.5202C12.4734 11.8298 12.3893 12.0758 12.254 12.2418C12.1206 12.4055 11.9313 12.4994 11.6984 12.4994Z" fill="black" stroke="white" stroke-width="0.25"/>
<path d="M17.1 2.08337H0.9C0.667098 2.08337 0.477855 1.98949 0.344392 1.82575C0.209106 1.65977 0.125 1.41378 0.125 1.10419C0.125 0.794598 0.209106 0.548605 0.344392 0.382626C0.477855 0.218884 0.667098 0.125 0.9 0.125H17.1C17.3329 0.125 17.5221 0.218884 17.6556 0.382626C17.7909 0.548605 17.875 0.794598 17.875 1.10419C17.875 1.41378 17.7909 1.65977 17.6556 1.82575C17.5221 1.98949 17.3329 2.08337 17.1 2.08337Z" fill="black" stroke="white" stroke-width="0.25"/>
</svg>
