<svg width="20" height="19" viewBox="0 0 20 19" fill="none" xmlns="http://www.w3.org/2000/svg">
<path d="M0.111607 10.9211C0.390346 12.9828 1.39379 14.8215 2.78749 16.2145L6.02085 12.9828C6.02085 9.69528 7.749 6.51924 10.7594 4.73621L0.111607 10.9211Z" fill="#9B65C3"/>
<path d="M6.02057 12.9827C4.40385 12.9827 2.78721 12.5927 1.282 11.7012C0.89177 11.4783 0.501507 11.1997 0.111328 10.9211C0.390067 12.9827 1.39351 14.8215 2.78721 16.2145L6.02057 12.9827Z" fill="#9B65C3"/>
<path d="M6.02047 12.9828L2.78711 16.2145C4.1808 17.6075 6.02047 18.6105 8.08315 18.8891L14.2711 8.24658C12.4872 11.2555 9.30962 12.9828 6.02047 12.9828Z" fill="#BE63C5"/>
<path d="M7.30265 17.7189C6.41072 16.2145 6.02047 14.5986 6.02047 12.9827L2.78711 16.2145C4.1808 17.6075 6.02047 18.6104 8.08315 18.889C7.80441 18.5547 7.52567 18.1647 7.30265 17.7189Z" fill="#BF63C6"/>
<path d="M18.118 0.501465L10.7595 4.73618C7.69332 6.51922 4.1255 6.35206 1.28219 4.73618C0.445968 6.12918 0 7.74506 0 9.5281C0 10.0296 0.0557478 10.4753 0.111496 10.9211C0.50173 11.1997 0.891993 11.4783 1.28217 11.7012C2.78738 12.5927 4.40402 12.9827 6.02073 12.9827L18.2854 0.724345C18.2297 0.612905 18.1737 0.557185 18.118 0.501465Z" fill="#3278B1"/>
<path d="M1.28228 11.7012C2.78749 12.5927 4.40413 12.9828 6.02085 12.9828C6.02085 9.69528 7.749 6.51924 10.7594 4.73621L0.111328 10.9211C0.445815 11.1997 0.836314 11.4783 1.28228 11.7012Z" fill="#3278B2"/>
<path d="M1.28219 4.73621C0.445969 6.1292 0 7.74508 0 9.52812C0 10.0296 0.0557478 10.4754 0.111496 10.9211L10.7596 4.73621C7.74924 6.51924 4.12551 6.4078 1.28219 4.73621Z" fill="#45A4EC"/>
<path d="M18.2854 0.724359C18.2296 0.668639 18.1739 0.61292 18.0624 0.5572C17.9509 0.50148 17.8951 0.39004 17.7837 0.33432C17.4491 0.11144 17.0032 0 16.6129 0H9.47729C5.9652 0 2.89907 1.89448 1.22656 4.7362C4.06967 6.35207 7.69328 6.51923 10.7038 4.7362C7.6377 6.51923 5.96527 9.69527 5.96527 12.9827C9.25434 12.9827 12.432 11.2554 14.216 8.24655L18.4528 0.891519C18.4528 0.835799 18.3969 0.780079 18.2854 0.724359Z" fill="#19BB7D"/>
<path d="M10.7596 4.73616L18.1181 0.501444C18.0066 0.445724 17.9509 0.334284 17.8394 0.278564L1.28223 4.73616C4.12534 6.40776 7.74915 6.5192 10.7596 4.73616Z" fill="#08C7FB"/>
<path d="M16.6129 0H9.47729C5.9652 0 2.89907 1.89448 1.22656 4.7362L17.7837 0.2786C17.4493 0.11144 17.0589 0 16.6129 0Z" fill="#59F2F6"/>
<path d="M14.2712 8.24655L18.5081 0.89152C18.4523 0.8358 18.3965 0.78008 18.3408 0.66864L6.07617 12.927C6.07617 14.5429 6.46641 16.1588 7.35836 17.6632C7.58131 18.0533 7.86005 18.4433 8.13879 18.8333C8.58482 18.8891 9.08651 18.9448 9.53248 18.9448C11.2607 18.9448 12.8773 18.499 14.271 17.6632C12.5986 14.8772 12.4873 11.2554 14.2712 8.24655Z" fill="#DA3757"/>
<path d="M6.02058 12.9828C6.02058 14.5987 6.41081 16.2145 7.30276 17.719C7.52578 18.109 7.80452 18.4991 8.08326 18.8891L14.2712 8.24658C12.4873 11.2555 9.30973 12.9828 6.02058 12.9828Z" fill="#D33C4E"/>
<path d="M14.2711 8.24658L8.08301 18.8891C8.52905 18.9448 9.03073 19.0005 9.4767 19.0005C11.2049 19.0005 12.8216 18.5548 14.2153 17.719C12.5986 14.8773 12.4871 11.2555 14.2711 8.24658Z" fill="#EE5A24"/>
<path d="M18.6762 1.1701C18.6204 1.05866 18.5647 0.947225 18.4531 0.891505C18.3974 0.835785 18.3416 0.780065 18.2859 0.668625C18.2301 0.612905 18.1744 0.557185 18.0629 0.501465L10.7044 4.73618C7.63825 6.51922 5.96582 9.69526 5.96582 12.9827C9.25497 12.9827 12.4326 11.2554 14.2166 8.24654C12.4326 11.3111 12.5998 14.8772 14.2166 17.7189C17.0597 16.1031 18.9551 12.9827 18.9551 9.47238V2.39594C19.0108 1.95018 18.8991 1.56014 18.6762 1.1701Z" fill="#8BDF55"/>
<path d="M18.1186 0.501465L10.76 4.73618C7.69392 6.51922 6.02148 9.69526 6.02148 12.9827L18.2861 0.724345C18.2304 0.612905 18.1743 0.557185 18.1186 0.501465Z" fill="#25C16F"/>
<path d="M6.02058 12.9827C9.30966 12.9827 12.4873 11.2554 14.2713 8.24649L18.5082 0.891459C18.4524 0.835739 18.3967 0.780019 18.3409 0.668579L6.02058 12.9827Z" fill="#8BDF55"/>
<path d="M18.508 0.891479L14.2711 8.24651C12.4872 11.3111 12.6545 14.8772 14.2711 17.7189L18.7309 1.17008C18.6194 1.11436 18.5637 1.00292 18.508 0.891479Z" fill="#FFBB00"/>
<path d="M14.2715 17.7189C17.1147 16.1031 19.01 12.9827 19.01 9.47238V2.39595C19.01 1.95019 18.8986 1.56015 18.6756 1.22583L14.2715 17.7189Z" fill="#FFA800"/>
</svg>
