<svg width="79" height="17" viewBox="0 0 79 17" fill="none" xmlns="http://www.w3.org/2000/svg">
<path d="M0.0939846 10.1967C0.328713 11.9328 1.17373 13.4812 2.34737 14.6543L5.07021 11.9328C5.07021 9.16437 6.52551 6.48979 9.0606 4.98828L0.0939846 10.1967Z" fill="#9B65C3"/>
<path d="M5.06998 11.9329C3.70853 11.9329 2.34713 11.6044 1.07959 10.8537C0.750967 10.666 0.422323 10.4314 0.09375 10.1968C0.328479 11.9329 1.17349 13.4813 2.34713 14.6544L5.06998 11.9329Z" fill="#9B65C3"/>
<path d="M5.0705 11.9327L2.34766 14.6542C3.5213 15.8273 5.0705 16.6719 6.8075 16.9065L12.0185 7.94434C10.5162 10.4781 7.84032 11.9327 5.0705 11.9327Z" fill="#BE63C5"/>
<path d="M6.14926 15.9215C5.39815 14.6546 5.06952 13.2939 5.06952 11.9331L2.34668 14.6546C3.52032 15.8277 5.06952 16.6723 6.80653 16.9069C6.5718 16.6253 6.33707 16.2969 6.14926 15.9215Z" fill="#BF63C6"/>
<path d="M15.2573 1.42236L9.06063 4.98846C6.47862 6.48997 3.47413 6.34921 1.07974 4.98846C0.375554 6.16152 0 7.52226 0 9.02378C0 9.44608 0.0469458 9.82146 0.0938915 10.1968C0.422512 10.4314 0.751155 10.6661 1.07973 10.8537C2.34728 11.6045 3.70867 11.933 5.07012 11.933L15.3983 1.61005C15.3514 1.51621 15.3042 1.46929 15.2573 1.42236Z" fill="#3278B1"/>
<path d="M1.07982 10.8536C2.34737 11.6043 3.70876 11.9328 5.07021 11.9328C5.07021 9.16437 6.52551 6.48979 9.0606 4.98828L0.09375 10.1967C0.375425 10.4313 0.704268 10.6659 1.07982 10.8536Z" fill="#3278B2"/>
<path d="M1.07974 4.98828C0.375554 6.16134 0 7.52209 0 9.0236C0 9.4459 0.0469458 9.82128 0.0938915 10.1967L9.06074 4.98828C6.52571 6.48979 3.47413 6.39595 1.07974 4.98828Z" fill="#45A4EC"/>
<path d="M15.3976 1.60999C15.3507 1.56307 15.3037 1.51615 15.2099 1.46922C15.116 1.4223 15.069 1.32846 14.9751 1.28153C14.6934 1.09384 14.3179 1 13.9892 1H7.98025C5.02267 1 2.44066 2.59536 1.03223 4.98839C3.42644 6.34914 6.47791 6.48991 9.01312 4.98839C6.43111 6.48991 5.02273 9.16448 5.02273 11.9329C7.7925 11.9329 10.4684 10.4783 11.9708 7.9445L15.5386 1.75076C15.5386 1.70383 15.4915 1.65691 15.3976 1.60999Z" fill="#19BB7D"/>
<path d="M9.06011 4.98816L15.2568 1.42206C15.1629 1.37514 15.116 1.2813 15.0221 1.23438L1.0791 4.98816C3.47331 6.39583 6.52496 6.48967 9.06011 4.98816Z" fill="#08C7FB"/>
<path d="M13.9902 1H7.98122C5.02365 1 2.44163 2.59536 1.0332 4.9884L14.9762 1.23461C14.6945 1.09384 14.3658 1 13.9902 1Z" fill="#59F2F6"/>
<path d="M12.0183 7.94442L15.5862 1.75068C15.5392 1.70376 15.4923 1.65683 15.4454 1.56299L5.11719 11.8859C5.11719 13.2466 5.44581 14.6074 6.19693 15.8743C6.38468 16.2027 6.6194 16.5312 6.85413 16.8597C7.22975 16.9066 7.65222 16.9535 8.02778 16.9535C9.48313 16.9535 10.8445 16.5781 12.0182 15.8743C10.6098 13.5282 10.5161 10.4782 12.0183 7.94442Z" fill="#DA3757"/>
<path d="M5.07037 11.9327C5.07037 13.2935 5.39899 14.6542 6.15011 15.9211C6.33792 16.2496 6.57265 16.578 6.80738 16.9065L12.0183 7.94434C10.5161 10.4781 7.84019 11.9327 5.07037 11.9327Z" fill="#D33C4E"/>
<path d="M12.0177 7.94434L6.80664 16.9065C7.18225 16.9534 7.60473 17.0003 7.98028 17.0003C9.43564 17.0003 10.797 16.625 11.9707 15.9211C10.6093 13.5281 10.5154 10.4781 12.0177 7.94434Z" fill="#EE5A24"/>
<path d="M15.7269 1.98543C15.68 1.89159 15.633 1.79774 15.5391 1.75082C15.4922 1.7039 15.4452 1.65697 15.3983 1.56313C15.3513 1.51621 15.3044 1.46929 15.2105 1.42236L9.01383 4.98846C6.43181 6.48997 5.02344 9.16454 5.02344 11.933C7.79326 11.933 10.4692 10.4784 11.9715 7.94456C10.4692 10.5253 10.61 13.5283 11.9715 15.9214C14.3657 14.5606 15.9618 11.933 15.9618 8.97685V3.01772C16.0088 2.64234 15.9147 2.31389 15.7269 1.98543Z" fill="#8BDF55"/>
<path d="M15.2574 1.42236L9.0607 4.98846C6.47869 6.48997 5.07031 9.16454 5.07031 11.933L15.3985 1.61005C15.3516 1.51621 15.3043 1.46929 15.2574 1.42236Z" fill="#25C16F"/>
<path d="M5.07037 11.9328C7.84014 11.9328 10.5161 10.4782 12.0184 7.94442L15.5863 1.75068C15.5393 1.70376 15.4924 1.65683 15.4454 1.56299L5.07037 11.9328Z" fill="#8BDF55"/>
<path d="M15.5858 1.75049L12.0179 7.94423C10.5156 10.525 10.6565 13.528 12.0179 15.921L15.7735 1.9851C15.6796 1.93818 15.6327 1.84433 15.5858 1.75049Z" fill="#FFBB00"/>
<path d="M12.0176 15.9212C14.4118 14.5605 16.008 11.9328 16.008 8.97673V3.01759C16.008 2.64222 15.9141 2.31376 15.7263 2.03223L12.0176 15.9212Z" fill="#FFA800"/>
<path d="M21.648 13V4.6H27.132V5.98H23.22V8.2H26.448V9.484H23.22V13H21.648ZM28.1402 13V6.76H29.6762V8.248H29.7122C29.9162 7.408 30.5042 6.688 31.5602 6.688C31.7042 6.688 31.8722 6.7 32.0402 6.748V8.044C31.8602 8.02 31.7162 8.008 31.5602 8.008C30.5282 8.008 29.6762 8.632 29.6762 10.096V13H28.1402ZM35.5179 13.12C33.8979 13.12 32.4339 12.196 32.4339 9.868C32.4339 7.564 33.8619 6.64 35.4939 6.64C37.1019 6.64 38.4219 7.528 38.4219 9.808C38.4219 10.024 38.4099 10.144 38.3859 10.276H33.8859C33.9819 11.44 34.5699 11.944 35.5539 11.944C36.3339 11.944 36.7899 11.644 36.9699 11.044H38.3379C38.0019 12.46 36.9099 13.12 35.5179 13.12ZM33.8979 9.34H36.9699C36.9339 8.464 36.4779 7.816 35.4699 7.816C34.5699 7.816 34.0059 8.32 33.8979 9.34ZM41.7059 13.12C40.0979 13.12 39.0539 12.436 39.0419 11.032H40.4099C40.4939 11.692 40.9979 11.956 41.7179 11.956C42.3779 11.956 42.8459 11.728 42.8459 11.2C42.8459 10.816 42.5939 10.624 42.1139 10.528L40.9619 10.276C39.7019 9.988 39.2099 9.328 39.2099 8.488C39.2099 7.312 40.2179 6.64 41.7179 6.64C43.3019 6.64 44.2019 7.396 44.2259 8.716H42.9539C42.8579 8.032 42.4019 7.804 41.7299 7.804C41.0459 7.804 40.6979 8.032 40.6979 8.464C40.6979 8.824 40.9499 9.052 41.4539 9.148L42.6419 9.412C43.6259 9.64 44.4299 10.072 44.4299 11.164C44.4299 12.544 43.1579 13.12 41.7059 13.12ZM49.615 9.436C49.615 8.416 49.171 7.912 48.343 7.912C47.503 7.912 46.891 8.416 46.891 9.436V13H45.355V4.6H46.891V8.044H46.939C47.059 7.504 47.659 6.64 48.979 6.64C50.203 6.64 51.151 7.384 51.151 9.076V13H49.615V9.436ZM54.8929 13.12C53.5489 13.12 52.1449 12.16 52.1449 9.88C52.1449 7.6 53.5489 6.64 54.8929 6.64C55.8049 6.64 56.5249 7.072 56.8249 7.66V4.6H58.3609V13H56.8249V12.1C56.5249 12.688 55.8049 13.12 54.8929 13.12ZM55.2529 11.836C56.0929 11.836 56.8969 11.224 56.8969 9.88C56.8969 8.536 56.0929 7.924 55.2529 7.924C54.3889 7.924 53.5849 8.536 53.5849 9.88C53.5849 11.224 54.3889 11.836 55.2529 11.836ZM62.4359 13.12C60.8159 13.12 59.3519 12.196 59.3519 9.868C59.3519 7.564 60.7799 6.64 62.4119 6.64C64.0199 6.64 65.3399 7.528 65.3399 9.808C65.3399 10.024 65.3279 10.144 65.3039 10.276H60.8039C60.8999 11.44 61.4879 11.944 62.4719 11.944C63.2519 11.944 63.7079 11.644 63.8879 11.044H65.2559C64.9199 12.46 63.8279 13.12 62.4359 13.12ZM60.8159 9.34H63.8879C63.8519 8.464 63.3959 7.816 62.3879 7.816C61.4879 7.816 60.9239 8.32 60.8159 9.34ZM68.6239 13.12C67.0159 13.12 65.9719 12.436 65.9599 11.032H67.3279C67.4119 11.692 67.9159 11.956 68.6359 11.956C69.2959 11.956 69.7639 11.728 69.7639 11.2C69.7639 10.816 69.5119 10.624 69.0319 10.528L67.8799 10.276C66.6199 9.988 66.1279 9.328 66.1279 8.488C66.1279 7.312 67.1359 6.64 68.6359 6.64C70.2199 6.64 71.1199 7.396 71.1439 8.716H69.8719C69.7759 8.032 69.3199 7.804 68.6479 7.804C67.9639 7.804 67.6159 8.032 67.6159 8.464C67.6159 8.824 67.8679 9.052 68.3719 9.148L69.5599 9.412C70.5439 9.64 71.3479 10.072 71.3479 11.164C71.3479 12.544 70.0759 13.12 68.6239 13.12ZM72.273 13V4.6H73.809V9.556L76.353 6.76H78.057L75.501 9.436L78.393 13H76.689L74.565 10.408L73.809 11.2V13H72.273Z" fill="black"/>
</svg>
