<svg width="14" height="14" viewBox="0 0 14 14" fill="none" xmlns="http://www.w3.org/2000/svg">
<path d="M7 14C10.866 14 14 10.866 14 7C14 3.13401 10.866 0 7 0C3.13401 0 0 3.13401 0 7C0 10.866 3.13401 14 7 14Z" fill="#4294FF"/>
<path d="M7.00018 5.04626C7.53962 5.04626 7.97693 4.60896 7.97693 4.06952C7.97693 3.53008 7.53962 3.09277 7.00018 3.09277C6.46074 3.09277 6.02344 3.53008 6.02344 4.06952C6.02344 4.60896 6.46074 5.04626 7.00018 5.04626Z" fill="white"/>
<path d="M7.32576 6.0459H6.6746C6.31497 6.0459 6.02344 6.33743 6.02344 6.69706V10.604C6.02344 10.9637 6.31497 11.2552 6.6746 11.2552H7.32576C7.68539 11.2552 7.97693 10.9637 7.97693 10.604V6.69706C7.97693 6.33743 7.68539 6.0459 7.32576 6.0459Z" fill="white"/>
</svg>
