<svg width="13" height="13" viewBox="0 0 13 13" fill="none" xmlns="http://www.w3.org/2000/svg">
<path d="M6.5 0C5.21442 0 3.95772 0.381218 2.8888 1.09545C1.81988 1.80968 0.986755 2.82484 0.494786 4.01256C0.00281633 5.20028 -0.125905 6.50721 0.124899 7.76809C0.375702 9.02896 0.994767 10.1872 1.90381 11.0962C2.81285 12.0052 3.97104 12.6243 5.23191 12.8751C6.49279 13.1259 7.79972 12.9972 8.98744 12.5052C10.1752 12.0132 11.1903 11.1801 11.9046 10.1112C12.6188 9.04228 13 7.78558 13 6.5C12.9977 4.77679 12.3122 3.12481 11.0937 1.90632C9.87519 0.68783 8.22321 0.00227872 6.5 0ZM7.36125 8.50687L6.78438 9.08375C6.5977 9.27308 6.37498 9.42311 6.12938 9.52498C5.88378 9.62685 5.62026 9.6785 5.35438 9.67687C4.9531 9.6775 4.56066 9.55907 4.22671 9.33657C3.89277 9.11408 3.63233 8.79752 3.47837 8.42695C3.3244 8.05639 3.28382 7.64848 3.36177 7.25484C3.43972 6.86121 3.63268 6.49955 3.91625 6.21562L4.49313 5.63875C4.5298 5.60023 4.57392 5.56957 4.6228 5.54862C4.67169 5.52767 4.72432 5.51686 4.7775 5.51686C4.83069 5.51686 4.88332 5.52767 4.9322 5.54862C4.98108 5.56957 5.0252 5.60023 5.06188 5.63875C5.10044 5.67624 5.1311 5.72108 5.15203 5.77062C5.17296 5.82017 5.18375 5.8734 5.18375 5.92719C5.18375 5.98097 5.17296 6.03421 5.15203 6.08375C5.1311 6.13329 5.10044 6.17813 5.06188 6.21562L4.485 6.78437C4.25983 7.01435 4.13432 7.32377 4.13563 7.64562C4.13346 7.80523 4.16325 7.96365 4.22325 8.11157C4.28326 8.25948 4.37225 8.39389 4.485 8.50687C4.59846 8.62082 4.73331 8.71124 4.8818 8.77293C5.0303 8.83463 5.18951 8.86639 5.35031 8.86639C5.51112 8.86639 5.67033 8.83463 5.81883 8.77293C5.96732 8.71124 6.10217 8.62082 6.21563 8.50687L6.78438 7.93812C6.82187 7.89956 6.86671 7.8689 6.91625 7.84797C6.96579 7.82704 7.01903 7.81625 7.07281 7.81625C7.1266 7.81625 7.17983 7.82704 7.22938 7.84797C7.27892 7.8689 7.32376 7.89956 7.36125 7.93812C7.39977 7.9748 7.43043 8.01892 7.45138 8.0678C7.47233 8.11668 7.48314 8.16931 7.48314 8.2225C7.48314 8.27568 7.47233 8.32831 7.45138 8.3772C7.43043 8.42608 7.39977 8.4702 7.36125 8.50687ZM7.64563 5.92312L5.92313 7.64562C5.88645 7.68414 5.84233 7.7148 5.79345 7.73575C5.74457 7.75671 5.69194 7.76751 5.63875 7.76751C5.58557 7.76751 5.53294 7.75671 5.48405 7.73575C5.43517 7.7148 5.39105 7.68414 5.35438 7.64562C5.31586 7.60895 5.2852 7.56483 5.26425 7.51595C5.24329 7.46706 5.23249 7.41443 5.23249 7.36125C5.23249 7.30806 5.24329 7.25543 5.26425 7.20655C5.2852 7.15767 5.31586 7.11355 5.35438 7.07687L7.07688 5.35437C7.11408 5.31641 7.15845 5.28619 7.2074 5.26548C7.25636 5.24477 7.30894 5.23396 7.36209 5.23369C7.41525 5.23343 7.46793 5.2437 7.5171 5.26392C7.56626 5.28413 7.61093 5.3139 7.64851 5.35149C7.6861 5.38908 7.71587 5.43374 7.73608 5.4829C7.7563 5.53207 7.76657 5.58475 7.76631 5.63791C7.76604 5.69106 7.75523 5.74364 7.73452 5.7926C7.71381 5.84155 7.68359 5.88592 7.64563 5.92312ZM9.08375 6.78437L8.50688 7.36125C8.47063 7.40032 8.42659 7.43135 8.37761 7.45234C8.32863 7.47333 8.27579 7.48382 8.2225 7.48312C8.16933 7.48304 8.11673 7.47219 8.06786 7.45125C8.01899 7.4303 7.97486 7.39969 7.93813 7.36125C7.89956 7.32376 7.86891 7.27892 7.84797 7.22937C7.82704 7.17983 7.81626 7.12659 7.81626 7.07281C7.81626 7.01903 7.82704 6.96579 7.84797 6.91625C7.86891 6.86671 7.89956 6.82186 7.93813 6.78437L8.515 6.21562C8.74017 5.98564 8.86569 5.67623 8.86438 5.35437C8.86655 5.19477 8.83675 5.03634 8.77675 4.88843C8.71675 4.74052 8.62775 4.60611 8.515 4.49312C8.40154 4.37918 8.2667 4.28876 8.1182 4.22706C7.96971 4.16537 7.81049 4.13361 7.64969 4.13361C7.48889 4.13361 7.32967 4.16537 7.18118 4.22706C7.03268 4.28876 6.89783 4.37918 6.78438 4.49312L6.21563 5.06187C6.17814 5.10044 6.1333 5.13109 6.08375 5.15203C6.03421 5.17296 5.98097 5.18374 5.92719 5.18374C5.87341 5.18374 5.82017 5.17296 5.77063 5.15203C5.72108 5.13109 5.67624 5.10044 5.63875 5.06187C5.60024 5.0252 5.56957 4.98108 5.54862 4.9322C5.52767 4.88331 5.51686 4.83068 5.51686 4.7775C5.51686 4.72431 5.52767 4.67168 5.54862 4.6228C5.56957 4.57392 5.60024 4.5298 5.63875 4.49312L6.21563 3.91625C6.59639 3.53794 7.11159 3.326 7.64833 3.32687C8.18507 3.32774 8.69958 3.54135 9.07912 3.92088C9.45865 4.30042 9.67226 4.81493 9.67313 5.35167C9.674 5.88841 9.46206 6.40361 9.08375 6.78437Z" fill="black"/>
</svg>
