<svg width="10" height="12" viewBox="0 0 10 12" fill="none" xmlns="http://www.w3.org/2000/svg">
<path fill-rule="evenodd" clip-rule="evenodd" d="M1.40625 0C0.631617 0 0 0.631617 0 1.40625V10.5938C0 11.3684 0.631617 12 1.40625 12H8.29689C9.07153 12 9.70314 11.3684 9.70314 10.5938V3.70304C9.70314 3.26718 9.52987 2.84889 9.22167 2.54068L7.16246 0.481477C6.85426 0.173276 6.43601 -1.03125e-07 6.00015 0H1.40625ZM5.91501 3.09014C6.2754 3.09015 6.63576 3.22694 6.90922 3.50043L6.90946 3.50062C7.45638 4.04762 7.45634 4.94225 6.90936 5.4892L5.28512 7.11339C4.96243 7.43607 4.4314 7.43607 4.10872 7.11339C4.10864 7.1133 4.10856 7.11321 4.10848 7.11312C3.7858 6.79044 3.7858 6.25944 4.10848 5.93675L5.32668 4.71855C5.35062 4.69461 5.37905 4.67562 5.41033 4.66266C5.44161 4.6497 5.47513 4.64304 5.50899 4.64304C5.54285 4.64304 5.57637 4.6497 5.60765 4.66266C5.63893 4.67562 5.66735 4.69461 5.69129 4.71855C5.71523 4.74249 5.73423 4.77091 5.74718 4.80219C5.76014 4.83347 5.76681 4.867 5.76681 4.90086C5.76681 4.93471 5.76014 4.96824 5.74718 4.99952C5.73423 5.0308 5.71523 5.05922 5.69129 5.08316L4.47309 6.30136C4.34746 6.427 4.34745 6.62287 4.47309 6.74851C4.47317 6.74859 4.47325 6.74866 4.47332 6.74874C4.59897 6.87438 4.79487 6.87443 4.92052 6.74879L6.54476 5.12459C6.89468 4.77468 6.8947 4.21518 6.5448 3.86524L6.54461 3.865C6.19473 3.51508 5.63525 3.51505 5.28535 3.86496L3.25507 5.89523C2.68088 6.46943 2.68088 7.39256 3.25507 7.96676L3.25512 7.96685C3.82931 8.54104 4.75245 8.54104 5.32664 7.96685L6.95079 6.3427C6.97473 6.31876 7.00315 6.29977 7.03443 6.28681C7.06571 6.27386 7.09924 6.26719 7.13309 6.26719C7.16695 6.26719 7.20048 6.27386 7.23176 6.28681C7.26304 6.29977 7.29146 6.31876 7.3154 6.3427C7.33934 6.36664 7.35833 6.39506 7.37129 6.42634C7.38424 6.45762 7.39091 6.49115 7.39091 6.52501C7.39091 6.55886 7.38424 6.59239 7.37129 6.62367C7.35833 6.65495 7.33934 6.68337 7.3154 6.70731L5.69125 8.33146C4.92001 9.1027 3.66175 9.1027 2.89051 8.33146L2.89046 8.33137C2.11922 7.56013 2.11922 6.30186 2.89046 5.53062L4.92074 3.50035C5.19422 3.22687 5.55461 3.09013 5.91501 3.09014Z" fill="black"/>
</svg>
