<svg width="40" height="40" viewBox="0 0 40 40" fill="none" xmlns="http://www.w3.org/2000/svg">
<rect width="40" height="39.1489" rx="8.51064" fill="#555BFF"/>
<path d="M26.2621 22.8455V17.3186C26.262 17.2582 26.2499 17.1983 26.2266 17.1426C26.2032 17.0868 26.1691 17.0363 26.126 16.9938C26.083 16.9514 26.032 16.9179 25.9759 16.8953C25.9199 16.8727 25.8599 16.8614 25.7995 16.8622H20.3774C20.2295 16.8619 20.0847 16.8194 19.9601 16.7397C19.8355 16.6599 19.7363 16.5461 19.6742 16.4119L19.3966 15.8012L19.0204 14.987C19.0022 14.9487 18.9816 14.9116 18.9587 14.8759C18.8137 14.6101 18.5997 14.3883 18.3391 14.2342C18.0785 14.08 17.7811 13.9991 17.4783 14H14.6963C14.4735 13.9998 14.2529 14.0436 14.047 14.1288C13.8411 14.214 13.654 14.3389 13.4965 14.4965C13.3389 14.654 13.214 14.8411 13.1288 15.047C13.0436 15.2529 12.9998 15.4735 13 15.6963V22.8455C12.9998 23.0683 13.0436 23.289 13.1288 23.4949C13.214 23.7007 13.3389 23.8878 13.4965 24.0454C13.654 24.2029 13.8411 24.3278 14.047 24.413C14.2529 24.4982 14.4735 24.542 14.6963 24.5418H24.5658C24.7886 24.542 25.0092 24.4982 25.2151 24.413C25.421 24.3278 25.6081 24.2029 25.7656 24.0454C25.9232 23.8878 26.0481 23.7007 26.1333 23.4949C26.2185 23.289 26.2623 23.0683 26.2621 22.8455Z" fill="white"/>
<path d="M20.2354 15.742C20.249 15.7679 20.2694 15.7897 20.2944 15.8049C20.3194 15.8201 20.348 15.8282 20.3773 15.8284H25.7993C25.9523 15.8268 26.1038 15.8584 26.2434 15.9209C26.1869 15.5159 25.9861 15.145 25.6778 14.8764C25.3695 14.6077 24.9745 14.4595 24.5656 14.459H19.6494L19.9578 15.1252L20.2354 15.742Z" fill="white"/>
</svg>
