<svg width="120" height="31" viewBox="0 0 120 31" fill="none" xmlns="http://www.w3.org/2000/svg">
<path d="M18.7304 24.0304C16.1894 23.0866 13.5759 22.9414 11.1801 23.5948C9.51028 24.0304 7.91309 24.9016 6.4611 25.9906L5.44469 26.8618L5.1543 27.1522L5.80769 27.733C5.88029 27.733 5.8803 27.8056 5.9529 27.8782C6.09809 28.0234 6.2433 28.096 6.4611 28.2412L6.89668 28.5316L7.33228 28.1686C7.40488 28.096 7.55008 27.9508 7.69528 27.8782C9.00207 26.7892 10.4541 26.0632 11.9786 25.7002C13.9388 25.192 16.0442 25.2646 18.1496 26.0632C19.892 26.7166 23.4494 27.5152 27.7327 25.7002L27.878 25.6276L28.0957 25.4098C28.0957 25.3372 28.1683 25.3372 28.2409 25.2646C28.6039 24.829 28.9669 24.3934 29.2573 23.8852L30.7093 21.6346L28.3861 22.9414C24.974 24.829 21.8522 25.192 18.7304 24.0304Z" fill="#201B21"/>
<path d="M8.78483 16.1897C10.745 15.6815 12.8504 15.7541 14.9558 16.5527C17.279 17.4239 23.2321 18.6581 29.9113 12.6323L31.0003 11.5433L31.0729 11.4707L31.3633 11.1803L31.2181 10.8173C31.1455 10.5269 31.0003 10.164 30.8551 9.80096L30.4921 8.78455L29.7661 9.51054C29.6935 9.65574 29.5483 9.72834 29.4031 9.87354C26.2087 13.1405 21.2719 16.4801 15.6092 14.4473C13.0682 13.5035 10.4546 13.3583 8.05883 14.0117C5.73565 14.6651 3.70286 15.8993 1.81527 17.6417V17.5691L0.726279 18.7307C0.726279 18.8033 0.653692 18.8033 0.581093 18.8759L0.363281 19.0937L0.435885 19.3841C0.508485 19.7471 0.653679 20.1101 0.726279 20.4731L1.16188 21.6347L1.88787 20.6909C1.96047 20.5457 2.10567 20.4731 2.17827 20.3279C3.70286 18.9485 5.80825 16.9883 8.78483 16.1897Z" fill="#201B21"/>
<path d="M1.74241 14.8829C3.41219 13.1405 5.29977 12.0515 7.33255 11.4707C9.29274 10.9625 11.3981 11.0351 13.5035 11.8337C20.0375 14.2295 25.7002 10.3091 28.1686 8.20373L29.1124 7.25994L29.4754 6.96953L29.185 6.53395C28.9672 6.31615 28.822 6.02575 28.6042 5.73535L28.1686 5.15454L27.6604 5.66275C27.5878 5.73535 27.4426 5.88054 27.37 5.95314C24.3208 8.85712 19.6019 11.8337 14.2295 9.80093C11.6885 8.85713 9.07495 8.71193 6.67916 9.36532C5.15457 9.80092 3.70258 10.5269 2.25059 11.4707L0.725995 12.7049C0.580796 12.8501 0.508196 12.9227 0.362997 13.0679L0.217812 13.2131V13.4309C0.145212 13.9391 0.145203 14.4473 0.0726039 14.8829L0 16.6979L1.2342 15.3911C1.3794 15.2459 1.52461 15.0281 1.74241 14.8829Z" fill="#201B21"/>
<path d="M20.8357 28.9672L20.6905 29.4028L20.8357 28.9672C20.6179 28.8946 20.4727 28.822 20.2549 28.7494C17.7139 27.8056 15.1003 27.6604 12.7045 28.3138C12.1963 28.459 11.6881 28.6042 11.1799 28.822L9.43753 29.6206L9.00195 29.8384L10.4539 30.3466C10.8895 30.4918 11.3251 30.637 11.7607 30.7822L11.9785 30.8548L12.1963 30.7822C12.4141 30.7096 12.6319 30.5644 12.8497 30.5644C12.9949 30.5644 13.1401 30.4918 13.2853 30.4192C15.0277 29.9836 16.9153 29.9836 18.9481 30.637C19.1659 30.7096 19.3111 30.7822 19.5289 30.8548L19.8919 31L20.1097 30.9274C20.6179 30.7822 21.1987 30.637 21.6343 30.4192L23.667 29.6932L21.5617 29.185C21.3439 29.1124 21.0535 29.0398 20.8357 28.9672Z" fill="#201B21"/>
<path d="M31.9435 13.9391L30.8545 15.0281C30.7093 15.1733 30.5641 15.3185 30.4189 15.4637C27.4423 18.2951 22.6508 21.3442 17.2784 19.3114C14.7374 18.3677 12.1238 18.2225 9.72806 18.8759C7.47748 19.5293 5.44467 20.6908 3.62969 22.4332L2.6859 23.4496L2.39551 23.8126L2.6859 24.2482C2.9037 24.5386 3.04891 24.7564 3.19411 25.0468L3.62969 25.7002L4.13789 25.0468C4.21049 24.9742 4.35568 24.829 4.42828 24.7564C6.17067 22.8688 8.05826 21.7072 10.2362 21.1264C12.1964 20.6182 14.3018 20.6908 16.4072 21.4894C18.2222 22.1428 20.1098 22.3606 21.9974 22.1428C25.3369 21.7798 28.6765 19.8923 31.1449 17.7869C31.2901 17.6417 31.4353 17.5691 31.5805 17.4239L31.7983 17.2061V16.9883C31.7983 16.5527 31.8709 16.0445 31.8709 15.6089L31.9435 13.9391Z" fill="#201B21"/>
<path d="M4.35614 7.25992L4.13835 6.82431L4.35614 7.25992C4.79174 7.04212 5.29995 6.89691 5.73555 6.75171C7.69574 6.24351 9.80112 6.31611 11.9065 7.11471C13.2859 7.6229 14.6653 7.8407 16.1899 7.8407C19.239 7.8407 22.2882 6.75171 25.1196 4.64633L26.2086 3.77513L26.5716 3.48473L25.9182 2.97653C25.7004 2.75873 25.41 2.54094 25.1196 2.39574L24.684 2.10535L24.321 2.39574C24.1758 2.46834 24.1032 2.61353 23.958 2.68613C20.1102 5.59011 16.2625 6.38872 12.6325 5.00933C10.0189 4.06553 7.40533 3.84773 4.79174 4.64633C4.57395 4.71893 4.35615 4.79152 4.06575 4.86412L3.92056 4.93672L3.70275 5.15451C3.70275 5.22711 3.63017 5.22712 3.55757 5.29972C3.26717 5.73532 2.90416 6.09832 2.61376 6.53392L1.23438 8.6393L3.48496 7.47771C3.84796 7.47771 4.13835 7.33251 4.35614 7.25992Z" fill="#201B21"/>
<path d="M10.3095 2.32317L10.5273 2.39577C11.4711 2.75877 12.9231 3.12177 14.7381 3.12177C16.6257 3.12177 18.4407 2.68617 20.2557 1.96017L22.5062 0.871181L20.9817 0.362997C20.5461 0.217798 20.1104 0.0725995 19.6022 0H19.3845L19.1667 0.0725818C18.9489 0.145181 18.7311 0.290398 18.5133 0.362997C16.3353 1.16159 14.1573 1.30679 12.0519 0.725995C11.8341 0.653395 11.6163 0.580783 11.3985 0.508183L11.1807 0.435579L10.9629 0.508183C10.5273 0.653382 10.0917 0.79859 9.65613 1.01639L7.98633 1.74238L9.72873 2.25057C9.87393 2.17797 10.0917 2.25057 10.3095 2.32317Z" fill="#201B21"/>
<path d="M42.205 24.452V8.18974H46.5958L50.8472 19.7127L55.1219 8.18974H59.5127V24.452H56.0279V14.2068H55.9118L52.1482 24.452H49.5462L45.8059 14.2068H45.6898V24.452H42.205ZM61.1943 24.452V12.3715H64.5861V24.452H61.1943ZM62.8902 10.9543C61.9145 10.9543 61.0317 10.1412 61.0317 9.09578C61.0317 8.02712 61.9145 7.21401 62.8902 7.21401C63.8659 7.21401 64.7488 8.02712 64.7488 9.09578C64.7488 10.1412 63.8659 10.9543 62.8902 10.9543ZM71.5499 29.3075C69.4358 29.3075 65.9742 28.7035 65.951 25.149H68.9479C69.0176 26.3106 70.3651 26.6823 71.4569 26.6823C73.0599 26.6823 74.3609 25.8924 74.3609 24.0106V22.5006H74.3145C73.7337 23.4066 72.4559 24.15 70.8065 24.15C68.3671 24.15 65.6955 22.547 65.6955 18.133C65.6955 13.7654 68.3903 12.1392 70.8065 12.1392C72.4559 12.1392 73.7337 12.8826 74.3145 13.7886H74.3609V12.3715H77.7528V24.0106C77.7528 28.4944 73.9892 29.3075 71.5499 29.3075ZM71.7357 21.3157C73.2226 21.3157 74.5235 20.3168 74.5235 18.133C74.5235 15.9724 73.2226 14.9502 71.7357 14.9502C70.2024 14.9502 68.9014 15.9724 68.9014 18.133C68.9014 20.3168 70.2024 21.3157 71.7357 21.3157ZM79.4349 24.452V12.3715H82.8268V15.2987H82.9197C83.3379 13.5331 84.4762 12.2321 86.4045 12.2321C86.6832 12.2321 86.9852 12.2553 87.3337 12.3482V15.2058C86.962 15.1593 86.6832 15.1361 86.3812 15.1361C84.5691 15.1361 82.8268 16.1815 82.8268 19.1087V24.452H79.4349ZM90.924 24.6843C88.9492 24.6843 87.0442 23.7318 87.0442 21.246C87.0442 18.5744 89.228 17.9936 91.3189 17.6916L93.3633 17.3895C94.4784 17.2269 94.8269 17.0411 94.8269 16.3673V16.2047C94.8269 14.927 93.9906 14.5785 92.9451 14.5785C91.8532 14.5785 90.8775 14.927 90.8775 16.1815V16.4138H87.6947V15.8562C87.6947 13.4866 89.2745 12.1392 93.038 12.1392C96.6854 12.1392 98.1491 13.4401 98.1491 16.0653V24.452H94.9198V22.3147H94.7804C94.5481 22.9652 93.5724 24.6843 90.924 24.6843ZM92.0855 22.2682C93.6885 22.2682 94.8269 21.1996 94.8269 20.2471V18.8996C94.641 19.1784 94.0603 19.2713 93.5259 19.3643L91.83 19.6663C90.7846 19.8289 90.4361 20.34 90.4361 20.9673C90.4361 21.7107 90.924 22.2682 92.0855 22.2682ZM104.741 24.6146C102.325 24.6146 100.722 23.5228 100.722 20.8279V14.9967H98.6774V12.3715H100.722V9.25841H104.114V12.3715H106.507V14.9967H104.114V20.34C104.114 21.2693 104.392 21.8965 105.647 21.8965C105.902 21.8965 106.112 21.8965 106.599 21.8501V24.3823C106.065 24.5217 105.415 24.6146 104.741 24.6146ZM112.982 24.6843C109.916 24.6843 106.896 22.9884 106.896 18.3885C106.896 13.8815 109.753 12.1392 112.959 12.1392C116.072 12.1392 118.697 13.7654 118.697 18.3421C118.697 18.7835 118.674 19.0158 118.628 19.2713H110.125C110.311 21.2925 111.356 22.1056 113.029 22.1056C114.585 22.1056 115.259 21.4784 115.538 20.5026H118.535C117.931 23.2672 115.793 24.6843 112.982 24.6843ZM110.125 17.2734H115.491C115.445 15.8795 114.725 14.7179 112.866 14.7179C111.286 14.7179 110.357 15.6007 110.125 17.2734Z" fill="black"/>
</svg>
