<svg width="78" height="78" viewBox="0 0 78 78" fill="none" xmlns="http://www.w3.org/2000/svg">
<path fill-rule="evenodd" clip-rule="evenodd" d="M63.375 43.4082H14.625V65.9697C14.625 67.0459 15.3307 67.9953 16.3617 68.3048C21.2599 69.7734 35.0342 73.9062 38.2992 74.8861C38.7562 75.0226 39.2438 75.0226 39.7008 74.8861C42.9658 73.9062 56.7401 69.7734 61.6383 68.3048C62.6693 67.9953 63.375 67.0459 63.375 65.9697C63.375 60.3196 63.375 43.4082 63.375 43.4082Z" fill="url(#paint0_linear_151_800)"/>
<path fill-rule="evenodd" clip-rule="evenodd" d="M63.3756 43.4082H39.0006C39.0006 43.4082 38.7642 74.9885 39.0006 74.9885C39.237 74.9885 39.4722 74.9543 39.7014 74.8861C42.9664 73.9062 56.7407 69.7734 61.6389 68.3048C62.6699 67.9953 63.3756 67.0459 63.3756 65.9697C63.3756 60.3196 63.3756 43.4082 63.3756 43.4082Z" fill="url(#paint1_linear_151_800)"/>
<path fill-rule="evenodd" clip-rule="evenodd" d="M38.9999 51.3167L14.6249 43.4082C14.6249 43.4082 10.3508 49.7457 8.43979 52.5781C8.22529 52.8962 8.17288 53.2947 8.29719 53.6567C8.42272 54.0186 8.70913 54.3002 9.07354 54.4196C13.7036 55.9235 27.4096 60.3769 31.0049 61.5444C31.5205 61.7126 32.086 61.5188 32.3907 61.0691C34.025 58.6572 38.9999 51.3167 38.9999 51.3167Z" fill="url(#paint2_linear_151_800)"/>
<path fill-rule="evenodd" clip-rule="evenodd" d="M63.375 43.4082L39 51.3167C39 51.3167 43.9749 58.6572 45.6093 61.0691C45.914 61.5188 46.4795 61.7126 46.995 61.5444C50.5903 60.3769 64.2964 55.9235 68.9264 54.4196C69.2908 54.3002 69.5772 54.0186 69.7028 53.6567C69.8271 53.2947 69.7747 52.8962 69.5602 52.5781C67.6492 49.7457 63.375 43.4082 63.375 43.4082Z" fill="url(#paint3_linear_151_800)"/>
<path fill-rule="evenodd" clip-rule="evenodd" d="M33.0996 26.7954C32.795 26.3481 32.2307 26.1543 31.7151 26.3225C28.1223 27.4888 14.4126 31.9434 9.78252 33.4485C9.41812 33.5667 9.13049 33.8483 9.00618 34.2102C8.88187 34.5722 8.93427 34.972 9.14877 35.2888C10.9086 37.8994 14.6246 43.4082 14.6246 43.4082L38.9996 35.4729C38.9996 35.4729 34.6219 29.0342 33.0996 26.7954Z" fill="url(#paint4_linear_151_800)"/>
<path fill-rule="evenodd" clip-rule="evenodd" d="M68.8508 35.2888C69.0653 34.972 69.1178 34.5722 68.9934 34.2102C68.8691 33.8483 68.5815 33.5667 68.2171 33.4485C63.5871 31.9434 49.8773 27.4888 46.2845 26.3225C45.7689 26.1543 45.2047 26.3481 44.9 26.7954C43.3777 29.0342 39 35.4729 39 35.4729L63.375 43.4082C63.375 43.4082 67.091 37.8994 68.8508 35.2888Z" fill="url(#paint5_linear_151_800)"/>
<path fill-rule="evenodd" clip-rule="evenodd" d="M63.375 43.4082L39 35.4729L14.625 43.4082L39 51.3166L63.375 43.4082Z" fill="url(#paint6_linear_151_800)"/>
<path fill-rule="evenodd" clip-rule="evenodd" d="M39 51.3166V35.4729L14.625 43.4082L39 51.3166Z" fill="url(#paint7_linear_151_800)"/>
<path fill-rule="evenodd" clip-rule="evenodd" d="M34.1033 38.9733C33.5963 38.6418 33.1393 38.2871 32.7335 37.9154C32.2386 37.4608 31.4672 37.4937 31.0114 37.9898C30.5568 38.4846 30.5897 39.256 31.0857 39.7106C31.5842 40.1689 32.146 40.6052 32.77 41.0135C33.3331 41.3815 34.0887 41.2231 34.4568 40.66C34.8248 40.097 34.6664 39.3414 34.1033 38.9733Z" fill="url(#paint8_linear_151_800)"/>
<path fill-rule="evenodd" clip-rule="evenodd" d="M30.3059 35.2292C29.944 34.738 29.6381 34.2444 29.387 33.7508C29.0823 33.1512 28.3474 32.9123 27.7478 33.217C27.1482 33.5217 26.9093 34.2566 27.214 34.8562C27.5235 35.4632 27.8989 36.0713 28.3438 36.6746C28.7423 37.2157 29.5052 37.3315 30.0476 36.933C30.5887 36.5332 30.7045 35.7703 30.3059 35.2292Z" fill="url(#paint9_linear_151_800)"/>
<path fill-rule="evenodd" clip-rule="evenodd" d="M28.5238 30.2555C28.536 29.7643 28.6079 29.2878 28.7395 28.8308C28.9248 28.1848 28.5506 27.5084 27.9034 27.3232C27.2575 27.1379 26.5811 27.5121 26.3958 28.1592C26.2094 28.8125 26.1046 29.4937 26.0863 30.1945C26.0704 30.8673 26.6018 31.4267 27.2746 31.4425C27.9473 31.4596 28.5067 30.9282 28.5238 30.2555Z" fill="url(#paint10_linear_151_800)"/>
<path fill-rule="evenodd" clip-rule="evenodd" d="M30.3986 26.1848C30.7118 25.8948 31.0628 25.6266 31.4467 25.3841C32.0159 25.0246 32.1865 24.2714 31.8282 23.7034C31.4687 23.1343 30.7155 22.9637 30.1463 23.322C29.6308 23.6474 29.1628 24.0069 28.7423 24.3969C28.2487 24.854 28.2195 25.6254 28.6765 26.119C29.1336 26.6126 29.905 26.6419 30.3986 26.1848Z" fill="url(#paint11_linear_151_800)"/>
<path fill-rule="evenodd" clip-rule="evenodd" d="M34.9308 24.0825C35.5438 23.9692 36.1934 23.8961 36.8783 23.868C37.5511 23.8388 38.0727 23.2696 38.0447 22.5981C38.0166 21.9266 37.4475 21.4037 36.7747 21.4317C35.9704 21.4659 35.2074 21.5524 34.4872 21.6852C33.8266 21.8083 33.3878 22.4445 33.5109 23.1051C33.6328 23.7669 34.269 24.2044 34.9308 24.0825Z" fill="url(#paint12_linear_151_800)"/>
<path fill-rule="evenodd" clip-rule="evenodd" d="M41.2824 24.0106C42.3219 24.0228 43.2896 23.9862 44.1879 23.907C44.8582 23.8473 45.3542 23.255 45.2945 22.5846C45.2348 21.9156 44.6424 21.4195 43.9721 21.4792C43.1495 21.5511 42.2634 21.5853 41.3104 21.5731C40.6376 21.5658 40.0855 22.1057 40.0782 22.7772C40.0697 23.45 40.6096 24.0033 41.2824 24.0106Z" fill="url(#paint13_linear_151_800)"/>
<path fill-rule="evenodd" clip-rule="evenodd" d="M48.1944 23.1599C49.401 22.7906 50.4199 22.3178 51.273 21.7754C51.8397 21.4135 52.0079 20.6603 51.6459 20.0923C51.2852 19.5256 50.5308 19.3574 49.9628 19.7194C49.2767 20.1557 48.454 20.5311 47.4815 20.8285C46.8392 21.0259 46.476 21.7072 46.6734 22.3507C46.8696 22.9942 47.5521 23.3561 48.1944 23.1599Z" fill="url(#paint14_linear_151_800)"/>
<path fill-rule="evenodd" clip-rule="evenodd" d="M54.3981 18.364C54.9733 17.1745 55.1939 15.9168 55.1378 14.7041C55.1061 14.0314 54.5346 13.5122 53.863 13.5439C53.1915 13.5755 52.6711 14.1459 52.7028 14.8175C52.7418 15.6413 52.5931 16.4957 52.2031 17.3037C51.9106 17.9094 52.1641 18.6395 52.7698 18.932C53.3755 19.2245 54.1056 18.9697 54.3981 18.364Z" fill="url(#paint15_linear_151_800)"/>
<path fill-rule="evenodd" clip-rule="evenodd" d="M53.6212 10.3947C52.7327 9.19423 51.5274 8.35817 50.2135 8.08883C49.5542 7.95476 48.9095 8.37889 48.7742 9.03823C48.6401 9.69758 49.0655 10.3423 49.7236 10.4776C50.4817 10.6324 51.1495 11.1528 51.6626 11.8462C52.0636 12.3861 52.8278 12.4995 53.3677 12.0997C53.9088 11.6988 54.0221 10.9346 53.6212 10.3947Z" fill="url(#paint16_linear_151_800)"/>
<path fill-rule="evenodd" clip-rule="evenodd" d="M37.6997 8.32528C39.0184 0.858002 50.4466 1.34063 43.7935 8.32528H37.6997Z" fill="url(#paint17_linear_151_800)"/>
<path fill-rule="evenodd" clip-rule="evenodd" d="M37.6997 10.2168C39.0184 17.6829 50.4466 17.2015 43.7935 10.2168H37.6997Z" fill="url(#paint18_linear_151_800)"/>
<path fill-rule="evenodd" clip-rule="evenodd" d="M37.5898 10.502H45.7506C46.4233 10.502 46.9693 9.95595 46.9693 9.2832C46.9693 8.61045 46.4233 8.06445 45.7506 8.06445H37.5898C36.9183 8.06445 36.3711 8.61045 36.3711 9.2832C36.3711 9.95595 36.9183 10.502 37.5898 10.502Z" fill="url(#paint19_linear_151_800)"/>
<defs>
<linearGradient id="paint0_linear_151_800" x1="14.625" y1="59.1983" x2="63.375" y2="59.1983" gradientUnits="userSpaceOnUse">
<stop stop-color="#CADCF0"/>
<stop offset="1" stop-color="#A4BBDB"/>
</linearGradient>
<linearGradient id="paint1_linear_151_800" x1="38.8958" y1="59.1983" x2="63.3756" y2="59.1983" gradientUnits="userSpaceOnUse">
<stop stop-color="#A4BBDB"/>
<stop offset="1" stop-color="#8DA3BE"/>
</linearGradient>
<linearGradient id="paint2_linear_151_800" x1="14.787" y1="43.3985" x2="18.1937" y2="65.9373" gradientUnits="userSpaceOnUse">
<stop stop-color="#E9F3FC"/>
<stop offset="1" stop-color="#CADCF0"/>
</linearGradient>
<linearGradient id="paint3_linear_151_800" x1="39.0987" y1="51.2338" x2="64.7945" y2="66.0122" gradientUnits="userSpaceOnUse">
<stop stop-color="#E9F3FC"/>
<stop offset="1" stop-color="#CADCF0"/>
</linearGradient>
<linearGradient id="paint4_linear_151_800" x1="11.4339" y1="38.6782" x2="15.1109" y2="21.3448" gradientUnits="userSpaceOnUse">
<stop stop-color="#E9F3FC"/>
<stop offset="1" stop-color="#CADCF0"/>
</linearGradient>
<linearGradient id="paint5_linear_151_800" x1="45.5252" y1="26.0288" x2="46.84" y2="47.4236" gradientUnits="userSpaceOnUse">
<stop stop-color="#E9F3FC"/>
<stop offset="1" stop-color="#CADCF0"/>
</linearGradient>
<linearGradient id="paint6_linear_151_800" x1="14.625" y1="43.3948" x2="63.375" y2="43.3948" gradientUnits="userSpaceOnUse">
<stop stop-color="#CADCF0"/>
<stop offset="1" stop-color="#A4BBDB"/>
</linearGradient>
<linearGradient id="paint7_linear_151_800" x1="41.496" y1="35.1182" x2="42.0213" y2="54.8047" gradientUnits="userSpaceOnUse">
<stop stop-color="#A4BBDB"/>
<stop offset="1" stop-color="#8DA3BE"/>
</linearGradient>
<linearGradient id="paint8_linear_151_800" x1="25.5831" y1="8.32539" x2="49.6217" y2="36.6894" gradientUnits="userSpaceOnUse">
<stop stop-color="#559AFF"/>
<stop offset="1" stop-color="#2E69EF"/>
</linearGradient>
<linearGradient id="paint9_linear_151_800" x1="25.5833" y1="8.32527" x2="49.6219" y2="36.6892" gradientUnits="userSpaceOnUse">
<stop stop-color="#559AFF"/>
<stop offset="1" stop-color="#2E69EF"/>
</linearGradient>
<linearGradient id="paint10_linear_151_800" x1="25.5829" y1="8.32529" x2="49.6216" y2="36.6893" gradientUnits="userSpaceOnUse">
<stop stop-color="#559AFF"/>
<stop offset="1" stop-color="#2E69EF"/>
</linearGradient>
<linearGradient id="paint11_linear_151_800" x1="25.5833" y1="8.32526" x2="49.622" y2="36.6892" gradientUnits="userSpaceOnUse">
<stop stop-color="#559AFF"/>
<stop offset="1" stop-color="#2E69EF"/>
</linearGradient>
<linearGradient id="paint12_linear_151_800" x1="25.583" y1="8.3253" x2="49.6216" y2="36.6893" gradientUnits="userSpaceOnUse">
<stop stop-color="#559AFF"/>
<stop offset="1" stop-color="#2E69EF"/>
</linearGradient>
<linearGradient id="paint13_linear_151_800" x1="25.5824" y1="8.32527" x2="49.621" y2="36.6893" gradientUnits="userSpaceOnUse">
<stop stop-color="#559AFF"/>
<stop offset="1" stop-color="#2E69EF"/>
</linearGradient>
<linearGradient id="paint14_linear_151_800" x1="25.583" y1="8.3253" x2="49.6216" y2="36.6893" gradientUnits="userSpaceOnUse">
<stop stop-color="#559AFF"/>
<stop offset="1" stop-color="#2E69EF"/>
</linearGradient>
<linearGradient id="paint15_linear_151_800" x1="25.5831" y1="8.32517" x2="49.6218" y2="36.6891" gradientUnits="userSpaceOnUse">
<stop stop-color="#559AFF"/>
<stop offset="1" stop-color="#2E69EF"/>
</linearGradient>
<linearGradient id="paint16_linear_151_800" x1="25.5826" y1="8.32526" x2="49.6212" y2="36.6892" gradientUnits="userSpaceOnUse">
<stop stop-color="#559AFF"/>
<stop offset="1" stop-color="#2E69EF"/>
</linearGradient>
<linearGradient id="paint17_linear_151_800" x1="37.6997" y1="5.61478" x2="45.8592" y2="5.61478" gradientUnits="userSpaceOnUse">
<stop stop-color="#E9F3FC"/>
<stop offset="1" stop-color="#CADCF0"/>
</linearGradient>
<linearGradient id="paint18_linear_151_800" x1="37.6997" y1="12.9273" x2="45.8592" y2="12.9273" gradientUnits="userSpaceOnUse">
<stop stop-color="#E9F3FC"/>
<stop offset="1" stop-color="#CADCF0"/>
</linearGradient>
<linearGradient id="paint19_linear_151_800" x1="25.5827" y1="8.32527" x2="49.6213" y2="36.6892" gradientUnits="userSpaceOnUse">
<stop stop-color="#559AFF"/>
<stop offset="1" stop-color="#2E69EF"/>
</linearGradient>
</defs>
</svg>
