<svg width="40" height="40" viewBox="0 0 40 40" fill="none" xmlns="http://www.w3.org/2000/svg">
<rect width="40" height="39.1489" rx="8.51064" fill="#00BC71"/>
<path fill-rule="evenodd" clip-rule="evenodd" d="M19.3478 22.1171C19.3478 21.7284 19.1935 21.3558 18.9186 21.0814C18.6442 20.8065 18.2716 20.6522 17.8829 20.6522C16.9132 20.6522 15.4346 20.6522 14.4649 20.6522C14.0762 20.6522 13.7036 20.8065 13.4292 21.0814C13.1543 21.3558 13 21.7284 13 22.1171V25.5351C13 25.9238 13.1543 26.2964 13.4292 26.5708C13.7036 26.8457 14.0762 27 14.4649 27H17.8829C18.2716 27 18.6442 26.8457 18.9186 26.5708C19.1935 26.2964 19.3478 25.9238 19.3478 25.5351V22.1171ZM26.6722 22.1171C26.6722 21.7284 26.5179 21.3558 26.243 21.0814C25.9686 20.8065 25.596 20.6522 25.2074 20.6522C24.2376 20.6522 22.759 20.6522 21.7893 20.6522C21.4006 20.6522 21.028 20.8065 20.7536 21.0814C20.4787 21.3558 20.3244 21.7284 20.3244 22.1171V25.5351C20.3244 25.9238 20.4787 26.2964 20.7536 26.5708C21.028 26.8457 21.4006 27 21.7893 27H25.2074C25.596 27 25.9686 26.8457 26.243 26.5708C26.5179 26.2964 26.6722 25.9238 26.6722 25.5351V22.1171ZM24.534 19.5745L26.5712 17.5374C27.1429 16.9656 27.1429 16.0378 26.5712 15.466L24.534 13.4288C23.9622 12.8571 23.0344 12.8571 22.4626 13.4288L20.4255 15.466C19.8537 16.0378 19.8537 16.9656 20.4255 17.5374L22.4626 19.5745C23.0344 20.1463 23.9622 20.1463 24.534 19.5745ZM19.3478 14.7926C19.3478 14.404 19.1935 14.0314 18.9186 13.757C18.6442 13.4821 18.2716 13.3278 17.8829 13.3278C16.9132 13.3278 15.4346 13.3278 14.4649 13.3278C14.0762 13.3278 13.7036 13.4821 13.4292 13.757C13.1543 14.0314 13 14.404 13 14.7926V18.2107C13 18.5994 13.1543 18.972 13.4292 19.2464C13.7036 19.5213 14.0762 19.6756 14.4649 19.6756H17.8829C18.2716 19.6756 18.6442 19.5213 18.9186 19.2464C19.1935 18.972 19.3478 18.5994 19.3478 18.2107V14.7926Z" fill="white"/>
</svg>
