<svg width="15" height="8" viewBox="0 0 15 8" fill="none" xmlns="http://www.w3.org/2000/svg">
<path d="M0.555557 3.49999C0.248734 3.49999 -1.86917e-07 3.72384 -1.74846e-07 3.99999C-1.62775e-07 4.27614 0.248734 4.49999 0.555557 4.49999L13.1032 4.49999L10.1627 7.14645C9.94579 7.34171 9.94579 7.65829 10.1627 7.85355C10.3797 8.04882 10.7315 8.04882 10.9484 7.85355L14.8372 4.35354C15.0543 4.15829 15.0543 3.84169 14.8372 3.64644L10.9484 0.146437C10.7315 -0.0488133 10.3797 -0.0488133 10.1627 0.146437C9.94579 0.341688 9.94579 0.658288 10.1627 0.853538L13.1032 3.49999L0.555557 3.49999Z" fill="#B6B6B6"/>
</svg>
