<svg width="14" height="14" viewBox="0 0 14 14" fill="none" xmlns="http://www.w3.org/2000/svg">
<path fill-rule="evenodd" clip-rule="evenodd" d="M0.25 5.86165C0.25 2.76244 2.76242 0.25 5.86162 0.25C8.96082 0.25 11.4733 2.76243 11.4733 5.86165C11.4733 8.96087 8.96083 11.4734 5.86162 11.4734C2.76241 11.4734 0.25 8.96086 0.25 5.86165ZM5.86162 1.75C3.59085 1.75 1.75 3.59086 1.75 5.86165C1.75 8.13246 3.59087 9.97337 5.86162 9.97337C8.13239 9.97337 9.97331 8.13245 9.97331 5.86165C9.97331 3.59087 8.13241 1.75 5.86162 1.75Z" fill="#070707"/>
<path fill-rule="evenodd" clip-rule="evenodd" d="M8.77924 8.7796C9.07214 8.48671 9.54701 8.48671 9.8399 8.77961L13.5299 12.4697C13.8228 12.7626 13.8228 13.2374 13.5299 13.5303C13.237 13.8232 12.7622 13.8232 12.4693 13.5303L8.77924 9.84026C8.48635 9.54737 8.48635 9.0725 8.77924 8.7796Z" fill="#070707"/>
</svg>
