<svg width="85" height="85" viewBox="0 0 85 85" fill="none" xmlns="http://www.w3.org/2000/svg">
<g filter="url(#filter0_d_56_20)">
<rect x="14" y="9" width="57" height="57" rx="17.6429" fill="#EDF6F9"/>
<rect x="14.5089" y="9.50893" width="55.9821" height="55.9821" rx="17.1339" stroke="white" stroke-width="1.01786"/>
</g>
<path d="M45.3628 27C44.0246 27 42.9458 27 42.0975 27.114C41.2166 27.2325 40.4749 27.4858 39.8859 28.0748C39.3722 28.5885 39.1126 29.2198 38.9764 29.9616C38.844 30.6824 38.8187 31.5645 38.8128 32.6228C38.8105 33.0282 39.1373 33.3586 39.5426 33.3609C39.948 33.3631 40.2784 33.0363 40.2806 32.631C40.2866 31.5609 40.3144 30.8024 40.4201 30.2268C40.522 29.6721 40.6856 29.351 40.9238 29.1128C41.1947 28.842 41.575 28.6654 42.293 28.5688C43.0322 28.4694 44.0119 28.4679 45.4166 28.4679H46.3951C47.7998 28.4679 48.7795 28.4694 49.5187 28.5688C50.2368 28.6654 50.617 28.842 50.8879 29.1128C51.1588 29.3836 51.3353 29.7639 51.4319 30.482C51.5312 31.2211 51.5328 32.2008 51.5328 33.6055V41.4343C51.5328 42.839 51.5312 43.8186 51.4319 44.5579C51.3353 45.276 51.1588 45.6561 50.8879 45.927C50.617 46.1979 50.2368 46.3744 49.5187 46.471C48.7795 46.5703 47.7998 46.5719 46.3951 46.5719H45.4166C44.0119 46.5719 43.0322 46.5703 42.293 46.471C41.575 46.3744 41.1947 46.1979 40.9238 45.927C40.6856 45.6887 40.522 45.3677 40.4201 44.8131C40.3144 44.2374 40.2866 43.4789 40.2806 42.4088C40.2784 42.0034 39.948 41.6767 39.5426 41.6789C39.1373 41.6812 38.8105 42.0117 38.8128 42.417C38.8187 43.4753 38.844 44.3574 38.9764 45.0782C39.1126 45.82 39.3722 46.4512 39.8859 46.965C40.4749 47.554 41.2166 47.8074 42.0975 47.9258C42.9458 48.0398 44.0246 48.0398 45.3628 48.0398H46.4489C47.7872 48.0398 48.8659 48.0398 49.7143 47.9258C50.5952 47.8074 51.3368 47.554 51.9259 46.965C52.5149 46.3759 52.7682 45.6343 52.8867 44.7535C53.0008 43.905 53.0007 42.8263 53.0007 41.488V33.5518C53.0007 32.2135 53.0008 31.1348 52.8867 30.2864C52.7682 29.4055 52.5149 28.6639 51.9259 28.0748C51.3368 27.4858 50.5952 27.2325 49.7143 27.114C48.8659 27 47.7872 27 46.4489 27H45.3628Z" fill="url(#paint0_linear_56_20)"/>
<path d="M32.7339 36.7844C32.3286 36.7844 32 37.113 32 37.5184C32 37.9237 32.3286 38.2523 32.7339 38.2523H44.4502L42.5316 39.8969C42.2238 40.1607 42.1882 40.624 42.4519 40.9318C42.7157 41.2396 43.1791 41.2752 43.4869 41.0114L46.912 38.0757C47.0746 37.9362 47.1682 37.7327 47.1682 37.5184C47.1682 37.3041 47.0746 37.1006 46.912 36.9611L43.4869 34.0253C43.1791 33.7615 42.7157 33.7972 42.4519 34.1049C42.1882 34.4127 42.2238 34.876 42.5316 35.1398L44.4502 36.7844H32.7339Z" fill="url(#paint1_linear_56_20)"/>
<defs>
<filter id="filter0_d_56_20" x="0.428572" y="0.857143" width="84.1429" height="84.1429" filterUnits="userSpaceOnUse" color-interpolation-filters="sRGB">
<feFlood flood-opacity="0" result="BackgroundImageFix"/>
<feColorMatrix in="SourceAlpha" type="matrix" values="0 0 0 0 0 0 0 0 0 0 0 0 0 0 0 0 0 0 127 0" result="hardAlpha"/>
<feOffset dy="5.42857"/>
<feGaussianBlur stdDeviation="6.78571"/>
<feComposite in2="hardAlpha" operator="out"/>
<feColorMatrix type="matrix" values="0 0 0 0 0 0 0 0 0 0 0 0 0 0 0 0 0 0 0.15 0"/>
<feBlend mode="normal" in2="BackgroundImageFix" result="effect1_dropShadow_56_20"/>
<feBlend mode="normal" in="SourceGraphic" in2="effect1_dropShadow_56_20" result="shape"/>
</filter>
<linearGradient id="paint0_linear_56_20" x1="51.649" y1="27.5459" x2="40.9398" y2="44.9907" gradientUnits="userSpaceOnUse">
<stop/>
<stop offset="1" stop-color="#697A88"/>
</linearGradient>
<linearGradient id="paint1_linear_56_20" x1="45.7232" y1="34.0391" x2="44.1096" y2="42.0946" gradientUnits="userSpaceOnUse">
<stop/>
<stop offset="1" stop-color="#697A88"/>
</linearGradient>
</defs>
</svg>
