<svg width="40" height="40" viewBox="0 0 40 40" fill="none" xmlns="http://www.w3.org/2000/svg">
<rect width="40" height="39.1489" rx="8.51064" fill="#E54938"/>
<path d="M22.979 13H16.0585C15.4949 13 15 13.5248 15 14.146V25.7331C15 25.941 15.0511 26.1143 15.1335 26.2482C15.2321 26.4083 15.3908 26.5 15.5609 26.4999C15.7218 26.4999 15.8931 26.4189 16.0513 26.266L19.1475 23.2906C19.2431 23.1981 19.3805 23.1451 19.5233 23.1451C19.6661 23.1451 19.8031 23.1981 19.899 23.2908L22.9849 26.2655C23.1436 26.4189 23.3031 26.5 23.4637 26.5C23.7353 26.5 24 26.2629 24 25.7332V14.146C24 13.5248 23.5426 13 22.979 13Z" fill="white"/>
</svg>
