<svg width="40" height="40" viewBox="0 0 40 40" fill="none" xmlns="http://www.w3.org/2000/svg">
<rect width="40" height="39.1489" rx="8.51064" fill="#FF9C22"/>
<path d="M19.5735 19.7072C20.6323 19.7072 21.5492 19.3275 22.2983 18.5782C23.0475 17.8291 23.4272 16.9125 23.4272 15.8535C23.4272 14.7949 23.0475 13.8782 22.2982 13.1288C21.5489 12.3798 20.6322 12 19.5735 12C18.5145 12 17.5979 12.3798 16.8488 13.1289C16.0996 13.878 15.7197 14.7948 15.7197 15.8535C15.7197 16.9125 16.0996 17.8292 16.8489 18.5783C17.5981 19.3274 18.5149 19.7072 19.5735 19.7072Z" fill="white"/>
<path d="M26.3165 24.3031C26.2949 23.9913 26.2512 23.6512 26.1868 23.2921C26.1219 22.9303 26.0383 22.5882 25.9382 22.2756C25.8348 21.9525 25.6942 21.6334 25.5203 21.3276C25.3399 21.0102 25.128 20.7339 24.8902 20.5065C24.6416 20.2686 24.3371 20.0773 23.9851 19.9377C23.6342 19.7989 23.2454 19.7286 22.8296 19.7286C22.6662 19.7286 22.5083 19.7957 22.2032 19.9943C22.0155 20.1167 21.7959 20.2583 21.5507 20.4149C21.3412 20.5485 21.0572 20.6736 20.7065 20.7869C20.3644 20.8976 20.0169 20.9537 19.674 20.9537C19.3312 20.9537 18.9839 20.8976 18.6413 20.7869C18.291 20.6737 18.0071 20.5486 17.7977 20.415C17.5549 20.2599 17.3352 20.1183 17.1446 19.9941C16.84 19.7955 16.6819 19.7285 16.5185 19.7285C16.1025 19.7285 15.7139 19.7989 15.3631 19.9379C15.0113 20.0771 14.7068 20.2684 14.4579 20.5066C14.2202 20.7341 14.0082 21.0104 13.828 21.3276C13.6543 21.6334 13.5137 21.9524 13.4102 22.2757C13.3102 22.5884 13.2266 22.9303 13.1616 23.2921C13.0973 23.6507 13.0536 23.991 13.032 24.3034C13.0107 24.6096 13 24.9273 13 25.2483C13 26.0835 13.2655 26.7596 13.7891 27.2583C14.3061 27.7503 14.9903 28 15.8224 28H23.5264C24.3585 28 25.0424 27.7505 25.5596 27.2583C26.0833 26.76 26.3488 26.0837 26.3488 25.2481C26.3487 24.9258 26.3378 24.6078 26.3165 24.3031Z" fill="white"/>
</svg>
