<svg width="12" height="12" viewBox="0 0 12 12" fill="none" xmlns="http://www.w3.org/2000/svg">
<path fill-rule="evenodd" clip-rule="evenodd" d="M6 0C9.31144 0 12 2.68856 12 6C12 9.31144 9.31144 12 6 12C2.68856 12 0 9.31144 0 6C0 2.68856 2.68856 0 6 0ZM5.30233 3.55814L5.5814 6.90698C5.5814 7.13805 5.76893 7.32558 6 7.32558C6.23107 7.32558 6.4186 7.13805 6.4186 6.90698L6.69767 3.55814C6.69767 3.32707 6.55814 2.86047 6 2.86047C5.44186 2.86047 5.30233 3.32707 5.30233 3.55814ZM6 8.02326C5.69191 8.02326 5.44186 8.2733 5.44186 8.5814C5.44186 8.88949 5.69191 9.13953 6 9.13953C6.30809 9.13953 6.55814 8.88949 6.55814 8.5814C6.55814 8.2733 6.30809 8.02326 6 8.02326Z" fill="#F44336"/>
</svg>
