<svg width="9" height="8" viewBox="0 0 9 8" fill="none" xmlns="http://www.w3.org/2000/svg">
<path d="M7.71189 8H0.73072C0.467093 8 0.230766 7.86382 0.098565 7.63574C-0.030931 7.4123 -0.0329105 7.14876 0.0931213 6.91261L3.58374 0.373938C3.70873 0.13979 3.94709 0 4.22131 0C4.49554 0 4.73388 0.13979 4.85889 0.373938L8.34949 6.9126C8.47556 7.14872 8.47356 7.41232 8.34405 7.63574C8.21186 7.86382 7.97555 8 7.71189 8Z" fill="#FF5B5B"/>
<path d="M4.22186 6.92809C3.85802 6.92809 3.56201 6.63209 3.56201 6.26825C3.56201 5.90441 3.85802 5.6084 4.22186 5.6084C4.58571 5.6084 4.88172 5.90441 4.88172 6.26825C4.88172 6.63209 4.58571 6.92809 4.22186 6.92809Z" fill="#FFF3F3"/>
<path d="M4.22188 4.94878C3.85802 4.94878 3.56201 4.65277 3.56201 4.28893V2.862C3.56201 2.49816 3.85802 2.20215 4.22186 2.20215C4.58571 2.20215 4.88172 2.49816 4.88172 2.862V4.28893C4.88172 4.65277 4.58572 4.94878 4.22188 4.94878Z" fill="#FFF3F3"/>
</svg>
